<mxfile modified="2021-01-19T04:18:17.978Z" host="app.diagrams.net" agent="5.0 (Macintosh; Intel Mac OS X 10_15_7) AppleWebKit/537.36 (KHTML, like Gecko) Chrome/87.0.4280.88 Safari/537.36" etag="hgDN3NTzx6F5IPRlvs0W" version="14.1.2" type="github">
  <diagram id="Ht1M8jgEwFfnCIfOTk4-" name="Page-1">
    <mxGraphModel dx="346" dy="764" grid="1" gridSize="10" guides="1" tooltips="1" connect="1" arrows="1" fold="1" page="1" pageScale="1" pageWidth="1169" pageHeight="827" math="0" shadow="0">
      <root>
        <mxCell id="0" />
        <mxCell id="1" parent="0" />
        <mxCell id="ccBI5_2j6PBWFBhrxWm6-1" value="" style="dashed=0;outlineConnect=0;html=1;align=center;labelPosition=center;verticalLabelPosition=bottom;verticalAlign=top;shape=mxgraph.weblogos.github" parent="1" vertex="1">
          <mxGeometry x="740" y="80" width="75" height="75" as="geometry" />
        </mxCell>
        <mxCell id="ccBI5_2j6PBWFBhrxWm6-2" value="" style="fontColor=#0066CC;verticalAlign=top;verticalLabelPosition=bottom;labelPosition=center;align=center;html=1;outlineConnect=0;fillColor=#CCCCCC;strokeColor=#6881B3;gradientColor=none;gradientDirection=north;strokeWidth=2;shape=mxgraph.networks.virtual_pc;" parent="1" vertex="1">
          <mxGeometry x="950" y="143.65" width="115" height="85" as="geometry" />
        </mxCell>
        <mxCell id="ccBI5_2j6PBWFBhrxWm6-4" value="User" style="outlineConnect=0;fontColor=#232F3E;gradientColor=none;strokeColor=#232F3E;fillColor=#ffffff;dashed=0;verticalLabelPosition=bottom;verticalAlign=top;align=center;html=1;fontSize=12;fontStyle=0;aspect=fixed;shape=mxgraph.aws4.resourceIcon;resIcon=mxgraph.aws4.user;" parent="1" vertex="1">
          <mxGeometry x="962.5" y="550" width="90" height="90" as="geometry" />
        </mxCell>
        <mxCell id="ccBI5_2j6PBWFBhrxWm6-5" value="" style="outlineConnect=0;fontColor=#232F3E;gradientColor=#945DF2;gradientDirection=north;fillColor=#5A30B5;strokeColor=#ffffff;dashed=0;verticalLabelPosition=bottom;verticalAlign=top;align=center;html=1;fontSize=12;fontStyle=0;aspect=fixed;shape=mxgraph.aws4.resourceIcon;resIcon=mxgraph.aws4.route_53;" parent="1" vertex="1">
          <mxGeometry x="720" y="550" width="78" height="78" as="geometry" />
        </mxCell>
        <mxCell id="ccBI5_2j6PBWFBhrxWm6-6" value="AWS Cloud" style="points=[[0,0],[0.25,0],[0.5,0],[0.75,0],[1,0],[1,0.25],[1,0.5],[1,0.75],[1,1],[0.75,1],[0.5,1],[0.25,1],[0,1],[0,0.75],[0,0.5],[0,0.25]];outlineConnect=0;gradientColor=none;html=1;whiteSpace=wrap;fontSize=12;fontStyle=0;shape=mxgraph.aws4.group;grIcon=mxgraph.aws4.group_aws_cloud_alt;strokeColor=#232F3E;fillColor=none;verticalAlign=top;align=left;spacingLeft=30;fontColor=#232F3E;dashed=0;" parent="1" vertex="1">
          <mxGeometry x="80" y="198" width="760" height="600" as="geometry" />
        </mxCell>
        <mxCell id="ccBI5_2j6PBWFBhrxWm6-7" value="VPC" style="points=[[0,0],[0.25,0],[0.5,0],[0.75,0],[1,0],[1,0.25],[1,0.5],[1,0.75],[1,1],[0.75,1],[0.5,1],[0.25,1],[0,1],[0,0.75],[0,0.5],[0,0.25]];outlineConnect=0;gradientColor=none;html=1;whiteSpace=wrap;fontSize=12;fontStyle=0;shape=mxgraph.aws4.group;grIcon=mxgraph.aws4.group_vpc;strokeColor=#248814;fillColor=none;verticalAlign=top;align=left;spacingLeft=30;fontColor=#AAB7B8;dashed=0;" parent="1" vertex="1">
          <mxGeometry x="120" y="230" width="560" height="520" as="geometry" />
        </mxCell>
        <mxCell id="ccBI5_2j6PBWFBhrxWm6-8" value="EC2 instance contents" style="points=[[0,0],[0.25,0],[0.5,0],[0.75,0],[1,0],[1,0.25],[1,0.5],[1,0.75],[1,1],[0.75,1],[0.5,1],[0.25,1],[0,1],[0,0.75],[0,0.5],[0,0.25]];outlineConnect=0;gradientColor=none;html=1;whiteSpace=wrap;fontSize=12;fontStyle=0;shape=mxgraph.aws4.group;grIcon=mxgraph.aws4.group_ec2_instance_contents;strokeColor=#D86613;fillColor=none;verticalAlign=top;align=left;spacingLeft=30;fontColor=#D86613;dashed=0;" parent="1" vertex="1">
          <mxGeometry x="160" y="280" width="480" height="320" as="geometry" />
        </mxCell>
        <mxCell id="ccBI5_2j6PBWFBhrxWm6-10" value="" style="shape=image;html=1;verticalAlign=top;verticalLabelPosition=bottom;labelBackgroundColor=#ffffff;imageAspect=0;aspect=fixed;image=https://cdn3.iconfinder.com/data/icons/popular-services-brands-vol-2/512/ruby-on-rails-128.png" parent="1" vertex="1">
          <mxGeometry x="351" y="310" width="98" height="98" as="geometry" />
        </mxCell>
        <mxCell id="ccBI5_2j6PBWFBhrxWm6-11" value="" style="aspect=fixed;html=1;points=[];align=center;image;fontSize=12;image=img/lib/azure2/databases/Azure_Database_MariaDB_Server.svg;" parent="1" vertex="1">
          <mxGeometry x="435" y="628" width="75" height="100" as="geometry" />
        </mxCell>
        <mxCell id="ccBI5_2j6PBWFBhrxWm6-12" value="" style="shape=image;html=1;verticalAlign=top;verticalLabelPosition=bottom;labelBackgroundColor=#ffffff;imageAspect=0;aspect=fixed;image=https://cdn4.iconfinder.com/data/icons/logos-brands-5/24/nginx-128.png" parent="1" vertex="1">
          <mxGeometry x="239" y="440" width="100" height="100" as="geometry" />
        </mxCell>
        <mxCell id="ccBI5_2j6PBWFBhrxWm6-13" value="" style="shape=image;imageAspect=0;aspect=fixed;verticalLabelPosition=bottom;verticalAlign=top;image=data:image/png,iVBORw0KGgoAAAANSUhEUgAAASMAAACtCAMAAADMM+kDAAACglBMVEX29vb3wdn///+NAEL29vf+9GH2+Pf3wNn3wtmMAD/5xNz6+/v//f+HADryiLj6w9uFADb/+f2AADOEADeCADF/AC+IADiCADX1iF//8/uBAC37wNr/9Pr96vR/ACqIADx0wVmExmT0jWR3AB7+yG/Lgrf4tNLxmcD/+Gv/9GCDAEB3ACP9w2D9y3a/gp39zoDCbKz52ujIe7TzyNvPi7xQy/TKkqvfusyvaIeVM13/7nT/uFD/92+hUHO3dZParML2k0P0ek/PezT/vCGc0ncAvvWg0HhdwO1p0fi+jpn3tc7pe6y2R3OjLl30osf2ttLjpLzZkKzVaJXey9SWV3WXKz6RH1a6ek6CHUbTs8OYQzfCjFL01G+IUE+kUXbQqFXhvVt2ZEh4i1aqYUPOnVt1UUJqABpevVVwo1b+43KsWH2xSzyBABGnWkO8hlD66F3Ib0fa5lvZiljepHH//cjsvpWaMSd4Z0a51lWWRDeHJSr/y03mpmSJACaALkCdyFHz00l9nFqfPkb2y1bpmFGiQiT80JR6uV7I11XfqW61W0L9+uVscEL+uWDEdkb/wEn/6KvPYlzrhDqPRE7rbk6zOEGHl13+vWngYk7smTT23pSHgFiwmVTMm6H2qzittWDoc17hd3PVcYjZpoO5YGPUjm73p3CTdV7sh23/xIOnmnSkY3L214aDXWn7lHHSeZiOHBParZhOeZ2Fo43niYY3nsliSnaTtoi+fnjxlIbchZduOWU4v8msRFtixam60W+XjsmLXoyEy5Nxn9a0hr14zJlyKVKCvsGlvXassHmesN1UycqPzaBWbZu1msyBy7dnCDuIfXh7teN3j7NnZIyNwObmUIclAAAfO0lEQVR4nO2djX8TZbr320w7yUwyyWQyMyGTTIYaaGuCkSE2yWCTCFKwbdK82ZK6vOi6iA24CuvD8iAtrtSX1YOoVRE5eNSzKlrXnuMRnrOCrIJyUHx7AP+f57rvSdq0TQu7z34+62B+H2lpDdB887uu+7qu+55JU1NDDTXUUEMNNdRQQw011FBDSC0t/+yfoKEbRGRTw0vXkLXo/Gf/CD93kfLdDUYQS4v9T8+WuHPRR/wSRPo81rmgKgmIJG2q5o9a9e/NIfVLAkf6EjFb9QsMB9Z7+ExabZ5IXBgUIr8kGgvIFA5Fp1MO4kECHqdHjSWHBP/GW0sesuWX5ZrZQrbxDcd4KTwDyWaT1Vg4McT5/ff8alPnr8Imq9X6T/wZfw5yJtPEZiGKw420OtXoluAD92zceu+mkZHu1ptXB8LRcDQmO61znHQjFODXGRwtTWRMIO77tRBDXnHGNCFw/9bVnZ2toJtbWzt/ozAuIeR3bUmpTquVJHUyJGmKDBvdXM75L3x9ASM5SGzbft+QD9b5eEjaONJ5882tVW0S2Pu33nvv1q3373tAS6ZUn9Nps9mcTjUcUg2eoqwpQUt5MKVrhgTp06jN2x8UUlY5ITyxqXMGUOvNI/vuH8GWau3sHvnNPQEuqJXjyXh5yMWXjV41WVPSjp1azHld4WAtA6PtmzVbXHhodWsNotaRe37bjb5++GGd08jWjfskQRCkewbdKavB2zhS5R659dmdCdV2HS+2NSluW7r911yee2j1LrDRw/d2YyTdWwO/6m6drc7Vq0c2bdq0W3QbPdSammzJwO8e/V97QmHPta1kDYu/3779aYUZXL1rL2JzD9gJUtH/3geB97Duoe7KZ6THH1vLKnFUEczDRBoJHCTi0f2PPvrO6FDkmlayRtl/2b60bYy7t/MASj6dG4ODm7p/88DG1Y8/dvjwY489DnQeXj0yMvL44w8/DN+6/VmGUKaS4VTEZ7OSNQHXYi36jBSA1lho9Oih8X2jgaRctVItLLKoVm1gDQt/2L5077YnunftRYt+50ZC4R/at6n74EHAMq2DBxGxw4fHB4MuQfIHAiEhmMSFE6mvDCQkfZ+hjGQL88zgk+88tXvnUKyOlchIUK581xYfexoY/f6J7md2PQP5CBiVS9wfO0cefvjgCqzDByHUHj94GLR/h//Z3ePjhw4dGh/f/ew+fzARjUFFgAoCORVMGGyM4oxzg298+Nxzf9wTAivhMqA2DtQQmnmgTswzdN/27Qd2/Qv4aNculHseYqayQWHr6lZAhCgdHDkInw6vODT+/D17nj90eEa3H3p+hz8UHIKKoKwFBTZusLqS9CS4PYdef+65F54VhmJzXmBSTit6aQ2Gg1DTGbXi+nr1E0yczgX5e1evWDGyYlqHdj///O5DwOrw7aDDM592P7vHL0mCf8eL/tS8KcvPWi0tpKy59x1dtmz/K6OjQsVKVZEyQTE4MmwpYdvSpdv37kWMUN1482oeGNF5TvjjMmygFSM1pFYcuuOll14avx0sNH7HS3fccVS3E0Te+B07BOMVBAiSSwrsfOiFp54MzF7gYN0rTbggI9liXOnBpUuXAqOHOiv9B+cq0830FMvuX7ZsBP6rITS+Zs1L44f0JAW8Dh06ekdFL738CrvFYOkICYUbtfvwpudMj/4OW6ny/ZamFtk1cYxPWW0xwf3qUsTowH2/rTDaGixvoZubHRrzxPsjm5ZVhLAcGV8yfkQnhFwEuO5Ys2bNy6DXXntFJNiowdKRLl+SGz362OsvPPfC7aJSs8CRKn/sD1LUFBOYY0sxo7bN/9q5C5fSG+8+rgEjOie43xlZdsuyaR15d/zIEXDRoUOA56WX1iC9/Norg6JIMQpBEJzxQg039c6oIB29c8WKNx4R9khcUsbTjRaoG4U//IEPI0RtmNGBp8f+rXMvZvRQ77DmaAZIZeaJW3TpjPYfWXbkpSPLIN7GUZAhRG9KLlFklCAQIpiw7do/0s9RpDPl4vft2DM6uvuFP+4TtIgTrzzy0ETbq8oWxVVBtHTpg2MHOvdCtN3cvW845kKMLFnF9btbagROWrMfEC05Mq6baM1r0uBrL7/55psvviKCkSLXN475+Ym0xYLE4PNH7/zwOdNTz/J82EOi9sN/bOl9lOJ6tYpo6a+PVRiNBIpFzmFGRoq7/3Qr0jSlJeO37F+y5N0lS3REb46+uGbNkrfeehNi7sVBhgsbMGfrsqpB/9o770RZ6fVHCLcGC5wcHHu6bYxy4XTdhji13ff0gW5UZbfeG1CLIW8zMlKfm33/1ooQoneXvH/LkhrtADhrPjmx5E30ec2LooDKUmN6ySprCNKm1z88vEMadXFhT5x7te2iSwEXAZ8Hf/80fPh124FunLN/4/cVA1nEqNmR4H9364zev+mmW99FbMaXzNLbKwtvv/XmkjVvDgrV/UrjTbtJeYv/2fH9+9fuGfz3px7h3Rqzra3tGPNeG9LSi+5tbUsffHrpXn2K/SvBGdnZbkGM6Lzwp3dA//6795Gf3r3pXcB0003jN81B9PZboLffWvIyQMJdrQG91EJ6koJrdOeetbc/anp0t0Qp761rm+AuYkZtr7qZV9valh7Yq0/RNpZskZ19DswoxzH+UCgUCPgHn/jTOyc+en8/IHoXcaoCugkQffp2YeXKQmFl4S1wUlk2IiRse6gBdrwBSenDFx59dGOQUjZ/wOk2AkMpSunptgN7d+FRts4oTzebUUJitPDxYdDx8GQp5B986MSJm2oEjE6cWLlq1cqKCm+/nZG06xp+/hxF2qKhJ98ARh/eemh0xyM8obi+rjDadvefxWNtew/s0kvI+4GRksQ+smS546aqbPLwpD/AP/HWRx9VGZ346MSJqZU1KhQKaZcQlm1Wqw2tcQY7ukSaYsF9a4/uX/vkf/yn6YXxUYLYrMfaRf7j/+I3A6O904zUPOeFSttMtweGTbXyDU+GhMEXT+iUTnxy4tNPEBowUlkjiMxQugxfpYe4cjQVTlXxGAmTNTIU5J9fe/TOx14wPfe+BL3DsXXIRsGT/0fYvA4gdbYiShsFn+ooa1nUjuRDFhVJ9jhtFUxy2C2JmNJHn5745JOplYWVq6ZWpVmKIiiKYZjgkJbO8IGhlNNqNdwmeEuLVdWgL0GV0usf7vfvEQkGrPQqf6oHGLUBo9ZWKJC67/cPy83eqYmwudkRn3KYQRB1lkhE9ThrKH0ENvro009WLX8bEK2EKptC/YhOKp1vViOpaDSaislG24azyglUKB2+5cjzo//91PgoRY19MOb+uOtr4V8PHNj7TGvrrl3dGxVR81iaHd5cDgokurkqxCqiyj5MqZcTBt/6y19OfPLpqk+nVi1ftZIlWCUYdLGotQVpGiNIksTzkhJXDeQlnD89Q+zgnif37HzkDYi3IzsIShFP95x5lfvr3r3PPNN6c2v3b12ucqhXRQs/lEiWaUL6L7PZElGd2EuS9NmJE3+ZWv7JKiSeiqqyrKbKupkYF5HBuWnlyiEhZahWt4VUBUUZHIci4M6DLzz36DsKRUjne84eG/vrrgPdf32ms3Urx0/R+Z2T3hkDzZG52aLKQEmdDEhvfXTb1KfLly9ftSozlEgND0fjGUVkg0NpPY+v+vzzL7Q0IemHvIyQutEPaotK7x0TnjwMjDZ9uGK3nyLEqz095zZvXr8LyqNdnSOSK05b6Gw8kbMsBAlxisiQwota4In8bcuxVi1fOaRIPDWklVeuqujz8ydP8wxRdms+ssUQiPAOmHMLe3HdB9zgI2uPrn1kdM+zIkRaz5lz7m3rD3Tv3dvdudGloW6WduC+fxFIzRHZabIdF4hVy2eEyegfv/z8y/MbTp4SIe60SCJmiJREqujnhFBjLq5b/4FbUfYApnGJP3Wyp+fsRdfm9W0Hdj1z4N/YYB+tJ5/FbIQzOFCCgJsQysvnCiE6//n5np6PRQpyuRT3FA2xtllTLlhfrFEWGK1b9/WYOH7nnUf54Mc9oK8uusfWw3cP/HUzl6cxAIsO6hqKeEzO3kB6+W1zKX158jwg6rkgBmOymnzAGCsb2RLmg6rVmnQpX69bv37dxTFp7RsS/x0EWteZdevHXBfbEDp/nL62hfRY0wVr3HBgaPltoLmIzvd8LPEpE0naYsbYCiBlTrkgpExxRnlvPYY0IbyCc9HZnrPrzn3NbQMjrd+Mk9HfIrNFNhWFIIakU/ryy+W3Xd7w+cnzJ3tOi0MePAMwxnTSGuOF/3nvgXhZIUqQkBCkbQoPkfbVmZ5z686eu/je7y+u+1rI0dcRYbMhmSM2uaSsuq2i77+57bbLl78/D4i+43ndQEZY0ZpQOmL5k+e+3swpimvz1+sxpLHgyZ6ur3rOrF937iyYaN36ibjjbyRUsZKsuVd9WaX05TfffHP5MiRshhry4H/cEAkbzfhF6eSl9esvfvDe5mMXv/32HFCa+FEPNfjtuXOQjT7gvNeTiupAUmWN+/zy5cvnvwdE33+zAS0E3zGUkLIahQ8SWtA+7kI4ZrT5AjC61POV/hX4Kr9gbX0tqWqJA/98D0LrGZjoNE+xcSdJOlGgGSPYINbEU11dP6w/98OlS5fOnLkEuD74cUNPV1fXufXfYkgflKoJ2zL94bqtFFEF95UNYKUNG06e/O7Uj7xIiJpM2tS4bJjjf2SMp1wnu7rOQJR9q4fa+oshqB97EKMffvjh7A8lsBFdLa9x+/o3QLJEIvyP8Pd39Zy8+uOoSBGEskV2qmG3ZpzRCCkrhHgaGHWdufTDt0hnL1069XEXMEIu+vbbr/5v0Guh+5L6nhH0Ig7v9SdwvF+Z95cgI53f0LXhuwt+URTLiWDIr0SNcyCJ9CVQ+wovNEBCwQbqOvldF4L0w7lz3579H26KduQnMBhv+8CUVtLC120k/EBHWbqwAatrw8nvrp46ferqx1d+VI2Ri7CsKZ6g+KsbEKQfvv3qq6/OXurq+nhDV08XwAJSp6SsIz6BJiKO9o4CEUrkrt9HFpS7zJb2jAQpD5JS17ROaUY5Q4ovYPRoFEGJF8531WjDBmyss2fPXPGX6fKYCs/X22EvCEzeQddJ2ua62Kp2ozsI6cpdtX//lYCRTpK0NFkjfjQhlE5f2dA1S2cQrAt8+1RAjliaHR32fo6B5t9ch1E26aBzC9vLW+Ddl++aoXTFZajrbqwkaU0hSITIl05fvXIZ541pXR2dag8UbZZmy4DdTvA5mqYhZ8+jQYfzdD63UBUF0ZbmL/x0F1ZX111XgmLZODayDsdkp9OUwiepIOLE0dCfr5ycYXTFr3m1XpMMVrDbC3yZbgc3FfSkPStxe8e8uU8X7um8HRnpC53RXT9dZSkjHSElPQm3NpkMl1lGEUVJKl2tDYmuyyW2LzfmM6nNlqzdnuHzQCgjJPrmpyTHVDz32UKM4NvZfsZ1BRO6ckGkeCNlI5/TE79w5eoXf7777j9/AYFWiYcKpw2n2RydGDaZIs3N7fZ+XrHb00op56Dnz9nogVKeW2R+Qg+k2eDpu7+4EGSh1Eh4DGSjYiIambrwzV119dMFSNHeCRswMjsG7GkmY89MhuN1y2zIOFoouzAji9eeobAIgtVk4yBCm9h+IUhxX/xUB9GVH8tZujkHNrIBow57hkkTk6aJfK7ewtbc3q8IfYu0vpb2AqsnPX/cUIjQab8hEXI1f3UupcunSjl8zNhnMjlh5bfbGQIQOXe2J/vqIcja0/7FGEHtkFYIihW0etfx/HyFugGrmuAptPCfvvLTNKefrpzW8ijtWMyqyWTyWJqz9oKLGvOYigHvZN98H1lg3SssFmu60yh0DbfBTtUgkb6oi0HrPusq3Q15+8rVUxcmkn2V/XyzB21Po5RdYPiIydSr0WN1UXjt/aH2RccmYCQxaJyBSEWVi7OtatzN4M14hRElLZrPOuhq1FjwFr6ZhpRNEa6i0z/V7vbWS9qQsJQ8vfBwyQwZyU6wSRv+Jw3npCbSqcZdrIKPwEjDKl2NH/QBHS5SccqGNXsyFshOaXV7DujmMslFx5WwtBVExUDF4xxZbXIqPiRwFOXyRPSXXVcEMYqYIZJQwp2cKNOl+oNboJhO1NCbV4mj1tZOiElDZexaoYsebR41skWcdFrQU4tY9Odo0Zc1SEduSpnsDWXzXP3MjBjVd9iMkVBScxnSSNO5gSR9Q/xxD6KjqlU3wLqmooY2zU6a1FDeyyXpuvUR9HNp1zU2KuExRr1Ka0Yq7y/KFkuzLCMMaITtaI6ouDoi+GG1FKcTmqP+OBszmrGYBYw4+3HwN9LwGHbIOHPsWapYyRplA7LcbFZtKCc5cmHaEXXoK1JaYcIPTDnKpWz9lQv1vGl3TRhGVDUy96GwOvazRmr556mlyZZkRotOS8qEI42eKnnRXIimIY+4xFI516clFjrFhsZLmRpGADYiq6rFPPdBBB8zMKOmJluCEcOmXtmDnqOZzgXKXlord3T0p1n2M0cuPrngqNEMa5adVWblI7M5N4wWyRo3tQNIztAJCd3Kh3D1HjdFKs87r5Xy3nLIJfFC2WsxOxwL1j8QjfYCV6plBA7yTvWaVEvliyojPmx4RkrJqZorT5L25sLhXC4fTy4yq8ZCNsow2pxzgJb2dK9Jrok3YJS+ARj5Yzb0ylssWUTJQYN5kJrnj9Vq5IAn36+IZcecnW6HHSoGeeZbmJGxY81WZqgJSNiIhvf6z0FYECJY+fh5f4RuLwTwNLzqKxRrxs7Z1hTUR078sjvy1wqvaWNZvLBc2fsZqk4F7rVnApVlEgktfoZe+1GwZcZ0G5mzuK+4jj1r2otMBGs6xcTnOc/sGCi4/MXKIoDrIyZo0BqyImsqMAzloxlvc9QZ7M+Tw5Ed6MCI0grB1GnkoLQklDGnR09JUGcXBAPtrM1XS5NHK9lkfAS7PZi7JiOHt70CCBBBpNVNYI6Ogsj3miJmfVZpT0uGTtnIRpXayDullzoLQTLjIyT2qvozDMPk6+ev9n6WkorYSDhlG/yOdh6N9/lwhAxkphZf1RztHTOEoJdjtRxdnyjaMxIT2EjoxIDLMOdF6gps1KsvQV67f8G9e8zQO02ov5BxsUIpP/8IQEV0R8FF+Isq7oztacHYoebU/LKeOAYKix5ZryLqL6QJgZXYcn7hJgXVjVC8T3gsaN5rp4wdamTEP2ny4EDqWGQybcGjaxAyEC8Qibx3DqE5IYeCjQipaJZpL7CakzTevH9atmQghkPN0r74LpBjABNiWZcWz3npueufpWZshI9DwspGiL0RRJYwdiPSJHODTr1Vg1BbrMbOorWeFZWprJeuZ7eIHKmFRg/0MwSlqUC2wARlI9vImvL3VkMtHV74JBFKK/0Ewyba6wJCj4h4IjUXuqFtNYLw96FaXDT0G0mQTi2gVlc1arEDIO0IkTS1WJqOeCI1fyCLEhJbAPOJxu7VSDWkmZzoqVm89sQiz9/b0U+JSm6RHdnmarhVvOhFjQqVtveLjKH7kCZr0t+rT3ogZS8yFoG2NMOW2q81T+r1zCB0QB4iiAy4SYgY+c7apByshhoEk3dBj4DJ0rzWt+jFbGiTaBJtQVUeBC0bC4wKilh2GpZQS1OLNSWV9FADpwwsbCP0fEvZa07f6PykaTol0R39DD6cxRnj6tmF5IxDc45bfmCUpet3FhY86qAy5Tw+6b9IQrL07ZTlmRPsdnzawhU3dDaCUJNi6JU3N9P0QFzT4vV7EQdqvgiGZ+LX8JLXr89DahhRxq6N0JBW8uHDEHS2HNi5MxBKzHeSGfVe+j1oCNGdj8x7QC3MktsnT+cjO5UOErzB3wrBuYWdwKN5R14Y6y3KkaSrXuOPbETpkChpUl2sX8kEKoNxzIiJa6KxbsQ+TxBq+qzQkQ+EnZ7hZNjbN7P+T/8GVrwMW04wIsbET3oWtpI3zU9Wg81h7+ejCWM3/FBjh10SmkDSuQCgSubzilY9z+fwZrNZh14OwQLFEh6nGh1yI0j+YZ9lgRrA4k2LJRtukPWTkql41LBns5BIW9LvD42ha0JKYyY1R+dLROWoNd0XL4UeCJX0OWwWb7KSpM0TDaK7Y/E+eSFI3gL0HZXNx6y9IKgxn8ETdiAh+3ojZjofAGvQeT9F8Hh3zRtO5LPebC4emHTgmQjhxiUOaVU1KHn43pmdszk+yhZEfthnrkRoOuizGhoR6UyUPMNoP8SrST7V4tXAIwo6p+5AB2uQm+h2F6Qn6Clc+i0wmkhS1tDAw+Zb4DRSe4ERwzb8e+heiLgN3z/on/xM/36RsnC8OFaEUOtzaSbVkeMhjPAAKZujq2oveZEfeHR0uKmlpQV64CBBCLKpftq2DACjSRMGCOnIH7Ma2UU41GK+40UVMrY0aVLpPEcQ7BT09Ra0gZafisencg46mYNSMCOkpr1gi7KEv2hS6yYkxIgq6Ys/CjWDXSAyT85EoGgqqWqzI+efNMn5PE9QCjo04h2wpwme9UusVPb2RekpO1Vzuhpd884Pm+S6jOgOaPUFnNHR2XZjNyFN6L7rAVkN+ZCPhAmTaeIzQvGj4ggKRoIhlLFiL6uwW7w5OpdWqvctIJtaII0xbM2ZkFnC4xAJr2voOhJj3V1kvkiZCMjFMScUfFlFkk1yXCujGhvCBSUmRjaZPBwloJwdZGuPV9mioogZzXcSPtFP8KrFghZDxfChRqruUNEzAYwsjrLUazLJ+oksr11R0JsVmEymYtQtxulmuuyvvcOcdZgVF/JROzCieNSsQDYSDH1wDYlUOSFWDKP8aulz+2Mm2YKOG9MD6bGUm5IEWe71T3zKQo9L5/laQ5AxzKju9TUD2EcRS7O3o8Aa82R/rYARG5v8bzxbpXNMoDeXD5shWvoDw6rgiqW40FhRdYlxxGjWRflkzL0gow57OkNxEYDVT4lxY9xQbBFBrInHjx/XC2Y6my8nc15U+GU4kxqIyWPuYZvJdNwPxQCdQ8lX/0PoV4xjU3XWftyh2TNpRYjQ0AQrhnz7ldmCNZyZNDlzZnx8Dd+XxgI2KgSOm4qhRGkS39A4FuizADd/cnY+kobr10foDE1B4RyQjJjqFWtGFikPUa5IPoEuA5l+vmAjqehLliOTk/iez72o7qY7+Nq9H3x4sl6dbYHuw851uINQX4lo+mh0RPqBY7ZylsZSGVJ7+3mtt5djhk29YdXnVAN5sxlSFLelhhGs/YLqrNOvwcpv7y/l3Rl7hiF4Y9xsdVGRTc64SFBuedoQ+HBNxq+aTBolTIaZzNhnvObImWkomGp95EyKbp+nTqThAyKJMJsBRGzSyJvX07KmJILgUzWbhmZHvwAx5hPg+5l+uz0dyjmSjmzNEX30vJ0JcaJuOkLnStLhuEhRhGKsux0sLFlzE4Sr6IvgjGTGlzBAC2ca5gllwF3oT4fidD6PrpcVagPHNyRO1ktHZi86/RCDCIa+z9g7ajMifdDCU8KwvpVtprNeOzS3JluJIOJ0VntAy9PZErrYgR+qvU2I7IaWNlLHR+ihHBqdEAK63YHRE7YuUg5SaKOjaPOoKj0VH0j7e2U5KaQ5yORer4P2agV8MiZZWw1GuIBcLx2hy2vSSdVFUH58K/obg1GLNcqhN5KTxnqP95ZKA3bXZG/vJE9kWLw5Al6i+vsLYLVZ7VqKd9nqjGrRBZF2NpZiCSFqu0EA4bcZ9SRE/R5RfEiDqmbMaZJLSiZIldpphzevKJSiMJCAPTV/ypqUkvVCDZ0MTXNyXORStnnvfGtkkbKm31QmMwXtqHS82MspXD4ISbdcLrGVXUd0MmZGaDTnm5+w0aJWEOLOoJIy9GZRHZFy3I+tlE5nGIr3sxSblN34/hoVQmxwVjUIbZ7LOX/lxxeyAc1YMGLwEfZckWiTLRIP4uVaZ8IMyU5N0emAhGBYnrWM28JSryky3b1U+hgdEaM5h/GjbyxKLU2k1aYG0S41emciUdJUkoy4EJ1EKhpNRTyz3/QSlkI/2koxz0BC1/oN4OvYoP9A1I09n52j6sttVeMuThhKluPhGDrAYFWj4aiK38Cpekee6kPBRom5GRsf/y8oBINPP9xYHqoKvWWtGouhd0izWkndWzN0Zj1rUlX8sdnjtcoFoy6CCBp/YLSoSPI67uHUQjrLfMJWayMLjU1EMFBco3NGN6aLrlP4DrfWlICzUTUTASGUidJuSGdS+EZb8/9m6bdwc9W0s2Z9ObOn0RtjU5Kxz9D8o0R6NJGXp9sQi7ddDzN057tgzPaLDrOKSGeS9w9XzhZZMKH+NIXv58bH5RtkFvL/J9IW5dHNtnCQVfKQTojTYsY9o/6PUeXp21KcqOknIR3osuNCxqXovUrU0zCR3rKkBHEMXTGDg6yQplz47DUfjMrGPlr8j5GOyI8QNTuyAwiQG3d0jKClGh6qiHRGwUVqBCxUSBM4xgiFVeIxX4NQRaQvyTEJun0qnaEYfSYgclpUdpI3Vv/694u0ygmeykxpBMvob8orurVwxGlt4JmWLRaEJV5h9KGb4nYPhdHEpEFoRnLygco7FaOxN1dGQ5MGn9kqRjoQHsXFM1o4JjsbDpqrliY57Gc5bmgL8PHZqg76Zc9A5ogs3q0lozEV/DNvJtlQRU6f09YIr2uogaehhhpqqKGGGmqooYYaaqihv0//DydBK2KwZAIVAAAAAElFTkSuQmCC;" parent="1" vertex="1">
          <mxGeometry x="435" y="451.06" width="149.6" height="88.94" as="geometry" />
        </mxCell>
        <mxCell id="ccBI5_2j6PBWFBhrxWm6-14" value="" style="shape=image;imageAspect=0;aspect=fixed;verticalLabelPosition=bottom;verticalAlign=top;image=data:image/png,iVBORw0KGgoAAAANSUhEUgAAAf4AAAB/CAYAAAAO9KDsAAAACXBIWXMAABcSAAAXEgFnn9JSAAAAGXRFWHRTb2Z0d2FyZQBBZG9iZSBJbWFnZVJlYWR5ccllPAAAJdhJREFUeNrsnW1wG9e53w9AEgTAFxAULcqiadHQS6JIrhTTk5ub+EaUS93JNOlEuSrVTtupmZlWmn6K3KlH6nSmlWc6HbH6EKVfGqm9Y7lzM02l61qeSdvciLKpxG6cG8GiYslObImmRNEyJIgg+AKAAAj0PNRZewVhF/sK7IL/38zOSgSwe/bsOef/PM958xSLRVZPDBx/cyc/9fFDOtPRwY8dWq+x/IfrN4qzydv8n7P8GOfHJB1vv/bSGAMAAABcjMfNws9FnkR9QIg8HbusuO7y+x+y4mJK6eMrwhggI2CMGwOTKEYAAAAg/PaJPQn9XiH4O+y4R/7dqJ6v3xRGwDluBJxDkQIAAADhNy/25M0fEoIfsvt+OoVfTpIMABgBAAAAIPz6xZ765YeF4G+o2o2XlxP5342HLbgSRQJO04HuAAAAABB+ZcHv46ej1fLuSylmlm4uj1+12tB4VRgAYyhyAAAAIPwPC/4LtUyHTcIvcZGeEQYAAACAVSv8ThH8L5S/mCouZe+xfN5bXFgssFR6LTcGAsW5easNgEPcABhHEQQAALAqhF/04R8SR8gVuZXNxYqpVLY4M9tVmEkEWH7Z7BVfFQbALIoiAACAuhV+LvrUf3+CVXPQnsVUmOuvB5oJQOH/EyiOAAAA6kr4hZd/mh/fc3WuWTfyXw6F/4cxAwAAAICdeKso+gPswdK333N7phXnFxZsuCytOjj+3L7jh1AsAQAAuNrj56JPYewf1kumFSZupgt34wEbb/GG8P7R9w8AAMA9wi9C+2PMpqV1a8Xy5fdZcSlr921oAaC9GPkPAADAFcIvltkl0a/ZiP2ix5PONDbdzTU0eOebAwX622ywdUPeW76HY83ifIxnSCaQy3r5UfDnc2v5/x/27LO5WP6933dX6RFo4B+N+j+NogoAAMCxws9Ff5g9GLVfNdFvavezZKY4nQi05EncF3x+lmlqMn3dxsIya13KrBgFnamFPJub93s/+OOaxmy2mu/pRYz6BwAA4EjhF6L/iu0Jb/Ay35pg2v9YS7yxtbmX/nYh2cKS+eqMVwzMJafX3rgRXPfxR+EqGQGvcvEfRpEFAADgGOHXI/pTHV2Zu22hTP/UjQ69nr3/8bYpX8jfxTyeh8LwH2d8sfcXm7urnYlt8XtTPdeu9q6ZmoL4AwAAWB3C3/o/b/3rL8duH6ewuBp5bwO79nhvfDbQ0kX/j8Rjmd7ZuL/S9ZvXtqaDPaFFr6+hS+k788ve6fOzLT21ykzu+Se5AVCwOQoA8QcAAFBb4fe8Hlvx9PnF0s/cnggoif9Cs59d6elLcvEPyRKQ4r8JKv2GBL+ltyPrafRqGi/wv+631T5TC4V0z4cfZDdcfs+uMQ4QfwAAALURfkn0ZRcsK/73WttTH3Y/4SmWhOdXxD2fi3998qOHPHkK6bduXBNX8/DL8e58gH2abXRE5lIEoO+9qK/7+sd2zPmH+AMAAKiu8JeKvpL432kPpz9au15V/HoT8WTkfixEg/a44Md84YChvvpbS03Tlxb8PU7K5JZEIr714ltdzdYv+PcyF/+jKMYAAABsF34u+qrz9CXxn28OVBR9if75z5aefDJY9Hg9fqMPdCfbGPvNfKDbiZn9xLWrcxsuv9du8WV/gHn+AAAAbBV+Lvo0En+SWThPP+gtzHwrlO7kZ92/TRc88Q9TzS13cw2BVMHr2Mx+rCE3s/3C+UL2drzL4kt/FSv8AQAAsFP4SWQsW4a3rzkXf6Y1o0sMuXmQvp72ZScyTSEni72E18My3wkv+Js8RZa+Opmeu3DZyn5/WuGvD2v7AwAAqKhHBkT/hFWiz2+e4oKf1iv6xFvJlsDVVLMjRP8JX36BC3pS7TvfbEutiD4R2N4XWPOPn6dFiNIWJYEiL+dQnAEAAFgq/Fz0B5hFu+zxG6d3hxaD3Ns35Pl+JbAUc0gGpr/Wlm79+50LITJiyhkAFNF4rGn5ob81PhZia/7ZnkBDW3DGoqTsem7f8aMo0gAAAFS1XGuo38p+fQp7725f9IcaC6au84tEC6u1x78lkE1uDy49lCdXU83J62lfE3+6YMBbjA92LHZJ3n4pxaUcu//TN2eW51OdFiUJ/f0AAAAU0TPh/bQVok+D+P5uR6pTSQj1EPHnkhTu1/BV8sLHheEyKfs79YnLlwzukx0btHj7XwpkH7k/GQI8bezdef9sf0umS+1ZPc1NbM0/eb7TQvGn97QTRRsAAIBhj597+3v56XUrPH1pgJsV0AC//z3TGsgVPaUf0V72Y+xBv/d48fvdk7oz5kGEY0B27NDi7RvFYs8f8/sBAAAYE34hgONaPOBK3vHu0GLAbHi/lI/SPsnrTwpv9zQXestD3TwfKApABtAhKS++HV5kRqYfVkn8n+LiP4kiDgAAoESPK3LIAtFP2SH6K+rmzyX46Qdc7Dv4ccgO0V8R5e93T/LjBD/IANgd8ed+ZaXorxgXIuzvafBmLLjcaRRvAAAAujx+4eWSkJoKZ9Nod6Oj91WgcP7R1761qWYCt+9X1wcoDfzYZeV18/eS7P7PxlKsUAiavNRu7vWPoZgDAADQ6vEfNSv6NJXNYtGnkP6LXPD7ain6BL//GD9I/L8vDBFLoKl+7bt3eCy41AkUcQAAAJqEX3j7L5i5OI3gN7I4jwoX+bGTi62jBI2nhwYR0kj6H1t1TVrkp3nTerNz/Hc8t+/4MIo5AAAALR7/UTMXXnPrZuqrP/0fLdnbcavSSl7+AD8mnZiRPF2z/DgkvP+kFdcMDT7T6W1uMnutoyjmAAAAVIXfrLffmM2yLe+87WXLy82J137N5kbfi9OIdYOQ8O12mpdfwfsf4McVs9eiwX6h737d7HTBDu71Y14/AAAAVY/flJe4+TfvxLzLy59vrZu+drPr/k8vxGnQmk6o35y8/DE3ZSpP77hV4u97oosFtm0wEjahvPsBe7B5D1byAwAA8MCpLB3Vb3Zp3lDsM7b9/C8VP295dkuy9ZvbtFz7ihB91+44t+9X1/v46ROz16Foyb3/+n8yxeWCX6PgH+VifxrFGwAAQCnlluwdZiZG8m9+5x3yThUH9KXf/4Rx4dfq6btZ9MmAsmTHPAr5tw3sKM5duKz2tYtC8MdckDf9/DTIjzA/+sWfBxW+PirOUX7Qmg2jvFxEUXUBAMA6j5+8fUML9nRf/zi96d3fqE7dC+/7s5XwtQpJIfquDU8L0ScB3mHlde/95OfJwlKu1Ch7gx8nnC74QuwPCIGPmLwcGQBnhRFwFtXYMe+Y3uuQMObCMsPtFH9PCeQQAA4Ufi76NAjsstGL/cmZnyUbs1nFaAH1VbcPPlNpet9ut/XpV0P0ifTVyTT3+iXD6lXh4U86PD9ICI5ZIPZKTJCwkCHAy80EqnRN3/NJmeDLoQjNHog/AM6gNNR/yOiFyNtXE31Pgzfd9mdPVxL9FyH6ygS292XT739yJnd31g2C3y8Ef9DmW0XEfY7xe5IBMAIDoCYcUxB9JiIAQ8JAAwDUmNJR/XuNXqj3979fVPu89Rtf8VBftQoX3TJlrwaiT90fL/Oj763/8i+GXSD6h/npfBVEvxTqSrghjA5QvfcdYZUjOmHkFAAO8/hFmN/wSP7m1KKiN0+L0ASf2RyqIGzDEP1HWBmhz49zbhnoyPPipBBgLYyqiIQZ8YbHX10iyAIAXCj8ZoS354NrU+T0Kwp/ayCzPJcKNbQr7jlz1Kkr8tVI9Gu+AZFNoi/1x2samS8b/T+oJ3qAvmQAANAm/AOGLpDNso47d1T77vP357rjr/wNa1rXOdX6zW29JaP6b7o1xG+D6F8Ugj/mwrw4piL6JMRH+HPp6uMVxgEdIyKcTF0IQ0w9bAzRrz6YXgmAi1jp4xdL9BoSrzW3bqY9hYKm3fdyn8300hK+9//qQmzpxh3pz4fcmHEWiz5Nydst9iJwo+gPCVEuB4XzN+oV/TJGwAQ/DtK1Kog7RKjKiAjLaAVjDAP7AHCYx6/o7TcWlllHOsVmA0GW9zY88nn39eu0YE+vnptSBGD25++yho7Wyxf/8l+ec2nenbBA9F9lLu7mEKJPnvhJhY9PCbG2VGT4PUncB1F9HcV+9sUsDqnPf4JhHj8AjhV+xU1cSPS33bm18u9sY2NsJtjWEGsLdc0GWlb+1ha/12v05suzC//ZxXl3SOSbXvGngYynyXBws+DLUJy7bbXol0QRBuHxO87rP4icAKAOhL9rYW6an3ro3758vnvdXILRQWSS8/f5aY3BeyfdvJ48jbLnnidNf6QVBrXMhkiKKMEJNy9FXOLtqw26O2LjrdVG7cOzBHaWeRpwKh2DvC5vRK4Atwr/LqUvtGdSeaXPmuL3M0Xj9z7t9swjj503BANMfbVD103J04FSvz71x4/WSPgBsEPwz7Av9pcAwNV4xfx9RQK5rPK6/fMLeRP3Pl0PGSj2FHhZQfB/wD/vo2l59Sb6sql25Thlc56rhfMR6gd2UGk2CQCu8vj7lD5sXcqo/riYWdpg8L4362yPeArhD7MHmxu5dkqeTtTm649W4f5q/fwAAABUhF/R4/fnc8qiv5gyc9+6EkXR3z8s/j22SsrOkMLfJ6q0ba7SyH54/AAAYNTj70gt3GQKW/Ry4U/zU8Dgfc/VW0auIsGX5u2HVQS5GpDHnyjzHjC4DwAAjAp/IJf1Kv4ylb6rZBRoYBxZ72oGK3ji1TC0Rll1uhQAAKC+hH/N4nzHsveBvktz82XCX1D6YTGz5DV4z6TTd5cDzhd+OxCLEUkL0NDgxXKbBUVFpIHOKwvUOGkbYPEMQ7L0l76rUVm6z7r0PfXL3pP8XZW+I8kwHK1S91NpGqU0RcyuXGkgbwZL8sXwe6+HeqGxfsjLTdXLTEle9yuUbeldSnltKJ2eXf/pwiMz8ooeTzrT2HTXn891eYrFlnI/XB6/etPg4L6LXPgHoJ2uFUcqhDMqnrjHZc8jNQJDzPguc1QRR8xMYeTp0LON8Z7Se4k1FQ4zfQMeEyLdIzan13S5EOXugDiMvKfPG0p+nFUTJXEvSdik8zGVd1/RIFZ7fj15qXQdne+fnn2/mmA4pV5YUTdkz3OY6dv1k/LniM1Tk+Vle4gZ25V0ZfMzPfW4saw1UCwGVKfxmQPevrvpr1AA3eLZa9nwR08EZJBflxqIg1XwdPolwRGNxhlmbIYD/faYaBT3O9FDkzXaJ02+q7DME6ZnVhKIwyoir/Tua22IH2bKa2qUI1IuL+ugXjxUN2TPdNLge6JrnefXIOPliE3vT3p3ZvI7Isr0AZHPFQ0Vo+F6M1P5IPwQ/lozJCxsq+dlU+NySYRbq9Ho031uWCA+/dVMt85nPCAMG8yh/8Kzl4v+eZ2iX/f1oqTsXLKgfhwWW45barCJSMYxC/M7IgyViuWhEVUJGPCc3C78WpCHhksbMalvWSl/qPI9a6OH0y8a0fMWNhpSujc6ZWaEzNNXKmtnxXmi5DkiMu++Xg0ASfQNiamJ8LWT68XnjokQfSvF+gBFLqwYF2ND3S2FvP+wWpQCwg9Wo8cfrSAmZ1X6P0dklfeYgriERaOzR0dDvKdM37JSn59Sw7HS18dK+rBlA74q9SFK3QZ7tKRXdm1JbIesEluRF0oN9xEN/Zkjsr5TPaF7pS2GlZ7LdP+vQl4eUHhXkrCWE/2EzBiSytKgm+uFgfwhT/qYShQkyr4YgMh05tMxkQ92ib6Uz1SmoqUGuIj29DNtYwEoShFVMlTKDu7TQv5dwwMeX377tZeOQj9d62moDbQ5YmSgWA2eYVBUvlL26PWEKvQJP2tmZLDon7yh4avUYIxoGTmusb/8oJFR6GoDP/UO7lPx2HRt9az0rg2kp2jFc1mQl0dkIiQX/LKDNJXKZ7l0u6VeVCprCsbcCFMZ1CkzEiv1t+836vWLe1xSiIroajvFuzpWwQBIiLx+5Jm9DADrPH63r5qnO2IhKqtSozhk0hPUkp6zonKf0njNle9XeFeHDabXyi4CS/aBsHtEtl2o5GWk5P1ExfsfsbFOOqpe6CxrVF6o+2pErT7R9USaK9UNM+MUTiqI/kG9DhOVa348W6E+hJXqMoQf6KVeB1klTPQ9nrKhkdACeQn79QqueM6DTHkL44iIDDjOwDToKdbTMs7ywXdR4Y1P6Hz20TqvF3JBPainfohn3W+18AsPvVydOmVmjQcR/VL7/QEROYTwg1VP1EpxUAn92Tm4zFS3ihBQtd/XWvgjFl6rHrdxTghhS2jwjBOrqF7IRf+UwXRPqNQNo+VSabyK6a5RIf5RPXXZuPD7mmIGf9kH3QG1RKGxHHXZM4xYdI0Jhwq/kudkxOOK1qEhMKIj+hFdLfVCljdmV0o8a5XwC2+/3O+iFs5wOKJH+A2P6vd4vZmisZ9C+IETOGKVZ+NyqIE7rNRg1bCPnN5HOZGntO43YOCM1NE7m9Bj+Emj4ldRvbDCKI7y8m9VeoZ0GhdG0jsqFkoqF02h6b8RuZFBwn+FHzt036mx0cvYEoQfuNXrH0EuqAs/K1kFrdripiD8Q7SYip6R/XXIKdQL3ZGLWnJAxbi1ui4PqtTlz4WfQv2zhjz+1paCwcRteG7f8Q60t3VJBFngukYy6tD3qWZw0IClS/JV7FahsQZcgNogWRuiaaNa67Jh4WfBwFoTCRxAkXAtaoULy6rW1zutpfCTuKl5btI66ufFnP/VZKxNoMi63hmK2lQulMrGYKnwjxvy+P3NAQg/gPAbHnDmJBJOe58iXKslnE8N2kn+DmZoxbY6eBeoF/XFoM46ZxZNRiH18U8aEv72NjOJg/DXJ3Vb0WXLhcrPEVYf3RvkfQw57X3SdDCe7zTYTMuSu5/vUsd/U3bpYoB64bA6ZwdKA/wilgj/CjSlL5vrlv6b9/lYsrubzfQ+OU3/3/z/3ulR+OWO5/Yd73v7tZcm8f5dxyhTH0Di9oZssKTx6mfowqil+NOa+wmmbxeziPg+RQAkA2AUuYl6sQo8frU68YXwj730/NjA8TcNXckTas8v5IvsbiQSS/T05NPtIUnoV85PXfoda8xmlX6+lx8nUC7qinDptBEXNWoHmEPnrkP8N50SU5WM7KtO7/VAlfeEryexR72oQ6QFfK4Y+XFi69ae8e98l3269SvdMtH/nPtPbkir/PwQst+VVApRuWaktWxP7PMmGzd4k/aL/4SYj06Hkels0p7wB5CbqBcQ/gcYGuDXkc+qfh7btCmu8jFN6xvAK4Dw16hxo1DlDZ3plbZspbnONPCMNkfx6FwgxU04zjsWm5NQ3m9kDxab0dNXurItLK0DgGqMerGakVbuG+PHC7p/XFhmwezSdMrXXLYvf77rsV7q9y8N99PfPtu8JXF348Z/J+4N3ON5JWifZ6bcnz9IHoMDF9GQN24Rprwntrwxi4oGjQQwWsdh4ohbhF8eARBCMyLeJ3mmB5i2QWUHxF7lp1CjUS+qYDxHHFCXR5WE3xDd87PBT9Z0K35OAv/EtathSfCnt21PTm/9iq/o9dLfdntejw0Uv98N8Xef19+v4lVRI+zkRlVtP3qqqEeM7rldZ8LviuVaS4wA8lQPa/BYaeDfWScbqKgXdS38g8yeZaQ1GRkrof6xl56f5KebRu6yPplQHdnJhd671NrKPty1O/a3/2B/+va27SEu+vI1AI6ibLiOSn13h52acCEManu9P7sKGzfXefwqRsCobCyAmuESZspLqa5Gbx/1whl1zixhLW22fHc+Q143hfvbM+kppc+5lx+6tPcv2Exvb3eJ4Evs4l7/XpQDVzWulVZVizh4ENVQBY9mVXmA1C3DNIYHXWgAPMvUI0+DqM2oFzVykiKia8Vq+rUY8XLhP2f0Tr2Je70mE3uCiz/W73cXlaz/Y0JU3NLAjazSxk1J/Oqi71YMBLRsi9VVKPwjEH1TTFTL8FTbu6I0WvO58I+99DwJf9LIDbsW58nzT5pI8wa2SkL+/OXs5Uc9GDmV+vBXRlA70LvVFArTeV03L1zUb9Cws/tdnS85zHQfjdgl/A41blEvnEPUgLFldV1+pK32lvzfkNffvLY1vbk5mzKZ6B/We8ifV4Sd/HSaH+P83wMu96SiGhqFIZMNdrVEzvDGJ6JxO19nnl6C1X5w5mCZw0xZrXqZqgPjbzXXC6vayQkV8R+0eIfJIa1GvGHh9zR4WWB9e6Kz/4lk61OdgU1ty4/zi6VNJvw0F/+ddSr6HUL0QyLC8Rb/m9tXLjyi4TsU8j9WhfwN29RnpqVxC7u0TA4peL1ODO/a8W71GAQTVUyX29s6V9cLG1CLnh2zKM8jCgZctNxy1Q8Jvwj336wk+MHejmRnf0+an8OeRi8JGWvyFNmmQDZrMv0hIf712N9Por+jNMrBX9i4iAS41evXMiWFNk45Y0dYlMRLLMhyw0wl0mt5C9F0e+N2wInevsK7iJi4Xr+Nwl/X4exVWi+qKfz9Fi0odViPc+ZVEChlZX56XZJ7+iHm8TwyQn97cCnEDYCkyQcgcRyrJ/HnL5by9Hsqz3uZf8eVSxhz8de6eho1CDco9G/GACDLlmYMCENihv/pjBAwuuZghbSO6hRBpcjCMXHfcA3L1GELfl8uvw46dTCXiYiOUl5ZMWvhgNv7+eupXjg0fycqGNMHzIi/MLbKvSfFzal0C3/60zmf2udPtyz5LMiruhF/IfpaVkX8Ef/uGD/6XPiY+5m23abCwisnA+Ck8NbDFRqTQWEs0PdvCM/+pDAkSn8bFpVADSUjZahS5RNTFC8pCMmExWJVCepC0b32vMjTMwrRkVNm5mqrPatF+TBoIE3HWPm+zwmdz6omjmeqaeTYVKZcVS9qkD9mrz9SoY08IOqz3gjLYYXyR/l+UOl3nmKx+MgfB46/qSpW1K8vhfjLcSHZEk/mvV0W5DFtHkQr+83WuejLoYjJMG+UzrnsWc3268kbVjP7eZ8SU7jUKopal4BknUdLBGdIJU0HZUZNuetJ6x5MiHNC64Aznt6ihq8lxD3omtHSa4uGStpW9YCRfCtnQLAvwtz9Mu9QbTEgKR+k9EXLRRdE43deRaDOCm9mQiVtQ+JQakj36NmqVxiUZyoI54iaMSEJRmm6ZXvaR8Q5XKG8yfMyIRPXqNFojZPrhcGydkpu0BjZllml7kndYfK0T1QaCKmhDJWW8Uf652V5oZb3CVG+o3qFf4Cf3lL6ka8zmGrb3BVU+jxV8LJfJFqs0hQS/71c/CddJILSQL7vmbjMG8IAmHXRc/cLb7yW/Z6VhD8sogZWhCOpgu2nyqmh4XwI2sTEQuG3Nc8U0nWemZ+HPFpuIxfhQZ7UmP/RMlGlSuVvRHRR6YqU6Cg3oyppOli6R4DF73iPQZFzbL2wqKwZMfaKZsuyQgTKzplOFUWfKBfqp0F+Y/x0UelH2ZlUcDmdiyl9HvQW2JZANmnRg1DYf5zW9HeJ+NFAvTGTos/E78f/zi9v/UO3CL8obHuYPWtQswreCDXkGysJmPCIjlhwz2hJQ+LWxW6O6BX9KhDW8b3SKX+Wi76s3Ggd9KiWpqhD6y7qRXXy+YhF+axkcG7UEk30qnx2VO2HC9fvd6t9TgP9Qo2FuEUPRN0Kb3Hxd/T0t90/Gvs3ubnM2+zR0fuGyBU9HX9I+X7m9OcubUBE4d7D7F3yVdqYhdYQp8I+onXOsfC4jFa+hBDLZ0sqmNtWNxsVeTfiwLRFbSg7khdqptEdMSvcNq8pYLbuol5UJ59HRPs4YWHZprzfo7WrR1H4K3n9+VSWLd1bUBX2P21Ld3k9LGNhntEiP5NO8/4Hjr/Zx4+xYr7wH+c/jueLywVLrvvufCDExV967nE3rXEg2yzlWdFgTlhQuEdFwySJ/RGjDamofPt1NEwJmaExomCIVBOjU+7OCo9sj1NFSFZ2Nor3bSad8mjQWZPpSpg0aE+5oN66vV64pn0UbeMRE3kUlZVtXQZ82T5+maCR0FxW/HGDl4V3rlcd6Hcv18B+PRe0I++oD/xQLfv+ef50iMjID+V/b2r3x9u3rjU1uPH9VHPm47TPX+ajF/kzu3LhH9kgs9Kpd4MlhVkatCT9O2qnSIk+ZSkkGynxiifEebQW09yU+hmpL1T0yw6KNEvnSEmjHBXPsDJgyK3rrssGNfXLnrPcINAJ2TuLGunv1pgeeRh/UCEN8vI76sI8d2y9qDfE+Cgpr8tNTS6ty6Nm9tJQFX4hbqeZysh0XzjA2rY8pnqNyaWm9HsL/oBNefYqiW81DQDy8PlpmAwP9qAb4hHaNnelfJ1BQxbPdLZx5rfzgU6Vr1AkZthNAx6B9cKP3AEAGMGr4TskbmUH6nHPlrVG1lQcxNfXnAv0+PIzNj0DGSWfeF6P0bz/YTvn/nPB3ysMoU/48e+VRJ+Yv37fU1jK675HquCtJPrELvZgwCO2MwYAAGCtxy8Ej8T/R/K/0bK9Kyv46YAL2gz3Zjur8FxvbLp3Z6wnOXNu7KXnDXvFwrMfEMdeNaEvR2PQFw89vU5zyJ9E/8JssFP062t+VuH9z6I4w+MHAABLhF+I4Bh5mlzMWNuXHot7fQ2G+rC1in9HepFtjH8Wv9LT15X3Nui+z67r16R/UkRiXByzsnPZx5SdSfQ3mMlcb3PjTGjr2k5+tkv0JW4K8R9DkYbwAwCAqlOq47vD/rWtl1r6wgHm8RgeuPYnbenOSuLfWFhm2+5MJfm56xuf/DH9yZq1nqmOLr/We5DRIIO89F3iqBqB9e3JYG+HpuiGSdFnwkCh6Y4/5uJ/CMUaAACAolOq9YsUMm95qvM/cNE3PUSfxF+tz5+LfpyLfkiEJAKReMz/9cmP4iWCrkj3fDJeqwylEf3hneupK0RTt4AFog8AAABYL/zEa9/aRNPI3rDixiT+TweXHpnj/9jCXIoL/CMRheZ8rmvH9CR79tb1WCUDoDM1v1ztjGwINMXat65lNI1PS2ifoNH7v0i0WCX6tLTxURRpAAAAajQa+M0we9BPvsHszTcHsv5gQyH1u/mAp8BYwJ/Lsa2x26oq2JJd6iYDYNHXHJvuWNN+pz380DRB6ibw5fPd1c7I0LbublrXQCtinr5VAx1XNvbBAD8AAACWevzC6ydx2csUpvjppceXD/55eDEQ9BZmtn92a4ZC+1p+RwbAlrufBr5144P0l+5+Gm8VwYOOdKomGZn+dE5TfnDvPkkLGikszmMUWshoHMUZAACA5cIvxJ9ExrJBZLSpz7fDi53hzmbdEQgyFNbNJbr6p26wFSMgNp2sRUam78z7Ki3Vey/XEP9FoiVEqxlayMtc9E+jKAMAALBN+IX4k9i8aGVi2p4MtYeeXse8vgZDg/PICJAGBVYdfu9MbCGh5OX/dj6Q4p5+l8WD+F7lon8UxRgAAIAOrTS3FfS+X10nA+AF6z3ouUxqKllkGkP/jsjMRm+ys/+JhwyPj9K+5B/TvpANo/avcNHfiSJcv4i9DW4ofLzRzFrdAAAIvyPFn0Ln1HdOYXS3GACtT3Wmm9e2Bu5kG2NXFpu7UwWvHbehEfwDGMxXd0IvbdAREechpry//MqmO+zB5h2SARDFhikAgKoIv53i7zYDINkVvvdR57rHbBJ8iH79in7RwsvtceNucACA6mCZOvGGZpg92CnPeuukwbuyIE5nf0+APGqjYwDsIu9tSEyFu5K/3bCFjXesh+gDAABwLI1WXozEn3suzC7PnwwACqPTkU9lWeazhXh2JtVQXC6Eq51xRY8nnQi0xO+EOnvjLW2G7v/EtavJXLM/F9u0ScsSyBB9AAAAzhJ+mfhPsgfb1tqX8KCPtUY6u1ikk5ERsHjt9nRuMc88AX+PbWKfzkwngq1sav0TPbOBFupy6DVyneDsbGzLO293tyRmQnmfj82ufzy+FGxRE38avT+M4goAAMC0E21VH38pXPxJqF6p1oPc/++j0/nE/Iroe1qCdKRZMHDXE2pvZB5P3uNv1r7SYDYXKxYKGTa/0MjFPlhcWAwX5+ZXPopt2py+/vU/NTTOwLu8nIn87m+L3dc/fuj3i+FONv6d7yr97GVM2QMAAOB44RfiT9PNxpjOfeyNEPvx69ofur3tUW8+lWIsX3mJ/6XWVnZp71/oy+RCId3z4QfZnmtXQ43ZbNnv3PzqM8nb27bL84kWIjqExXkAAABYidfOi4sV/vr4cdHI7/P3kqy4lKssxjfu6Louee+lhxbRJ5oXFlhDLqtpyhQJPvXjf+2vzwQ2XH5PUfQJ+rwlkZAGLUr9+RB9AAAA7vH4S7z/o0xnv//dn/w8wQXZ7/9y72LL177c1dBefkfg5C+j05kPb/VUK9M+/sY3p+9GNirejwyDxz/6yKvm4StFE658+++9kvP7/xUG8QEAAHC18Avxp9A/ebE7Kn03fXUyPXfh8kN94U3rOqcC2zZ0+Tf3BDzNTZ///d5/+7+xwmKmajvy3e/tZX/YtfuRv7fF701xse9dMzVl5LIrO+y9/dpL51AsAQAA1IXw6/H+7/3k58nCUk5xbIBkBPieXBuIv/I3VU0/jcT/7f5/9LnYd1+/3rXm1s2AHu++hB/z4ygXfXj5AAAA6k/4hfj3Ce9/lxZv32kku9exUOwzs5ehvvxDXPDHUBQBAADUtfDLDIABfjrBZOH/+391IZa/P9ddx/l+U3j4p1EEAQAArCrhlxkAwySG2dvxDYnXfl2v+U39+Ce44B9F0QMAALCqhV9i8N/+7J9n/jD1T1mZLgB4+AAAAECdCb/Ec/uOD/ATRQFecHH+vsGP0xipDwAAAMKv3QDo4Ke9/DjENEwDdIh3T2MWznHBn0QRAwAAAOE3bgT0CSOADid1BdDo/HNC7MdRrAAAAED47TEEyAAY4MfOKhsCJPRj0oH59wAAACD8tTEEdgojoE8YBMykQUACPysEns7jmHMPAADAzfx/AQYAHXfiUoSimyUAAAAASUVORK5CYII=;" parent="1" vertex="1">
          <mxGeometry x="280" y="91.36" width="210" height="52.29" as="geometry" />
        </mxCell>
        <mxCell id="ccBI5_2j6PBWFBhrxWm6-15" value="" style="outlineConnect=0;fontColor=#232F3E;gradientColor=#4D72F3;gradientDirection=north;fillColor=#3334B9;strokeColor=#ffffff;dashed=0;verticalLabelPosition=bottom;verticalAlign=top;align=center;html=1;fontSize=12;fontStyle=0;aspect=fixed;shape=mxgraph.aws4.resourceIcon;resIcon=mxgraph.aws4.rds;" parent="1" vertex="1">
          <mxGeometry x="273" y="639" width="78" height="78" as="geometry" />
        </mxCell>
        <mxCell id="ccBI5_2j6PBWFBhrxWm6-16" value="" style="outlineConnect=0;fontColor=#232F3E;gradientColor=#60A337;gradientDirection=north;fillColor=#277116;strokeColor=#ffffff;dashed=0;verticalLabelPosition=bottom;verticalAlign=top;align=center;html=1;fontSize=12;fontStyle=0;aspect=fixed;shape=mxgraph.aws4.resourceIcon;resIcon=mxgraph.aws4.s3;" parent="1" vertex="1">
          <mxGeometry x="720" y="290" width="78" height="78" as="geometry" />
        </mxCell>
        <mxCell id="ccBI5_2j6PBWFBhrxWm6-19" value="" style="endArrow=classic;html=1;" parent="1" edge="1">
          <mxGeometry width="50" height="50" relative="1" as="geometry">
            <mxPoint x="930" y="122" as="sourcePoint" />
            <mxPoint x="830" y="122" as="targetPoint" />
          </mxGeometry>
        </mxCell>
        <mxCell id="ccBI5_2j6PBWFBhrxWm6-23" value="" style="endArrow=classic;html=1;" parent="1" target="ccBI5_2j6PBWFBhrxWm6-8" edge="1">
          <mxGeometry width="50" height="50" relative="1" as="geometry">
            <mxPoint x="270" y="122" as="sourcePoint" />
            <mxPoint x="240" y="190" as="targetPoint" />
            <Array as="points">
              <mxPoint x="240" y="122" />
              <mxPoint x="240" y="280" />
            </Array>
          </mxGeometry>
        </mxCell>
        <mxCell id="ccBI5_2j6PBWFBhrxWm6-24" value="Nginx(Webサーバー)" style="text;html=1;strokeColor=none;fillColor=none;align=center;verticalAlign=middle;whiteSpace=wrap;rounded=0;" parent="1" vertex="1">
          <mxGeometry x="230" y="560" width="129" height="20" as="geometry" />
        </mxCell>
        <mxCell id="ccBI5_2j6PBWFBhrxWm6-25" value="Unicorn(アプリケーションサーバー)" style="text;html=1;strokeColor=none;fillColor=none;align=center;verticalAlign=middle;whiteSpace=wrap;rounded=0;" parent="1" vertex="1">
          <mxGeometry x="410" y="560" width="210" height="20" as="geometry" />
        </mxCell>
        <mxCell id="ccBI5_2j6PBWFBhrxWm6-27" value="Ruby on Rails" style="text;html=1;strokeColor=none;fillColor=none;align=center;verticalAlign=middle;whiteSpace=wrap;rounded=0;" parent="1" vertex="1">
          <mxGeometry x="349" y="420" width="100" height="20" as="geometry" />
        </mxCell>
        <mxCell id="ccBI5_2j6PBWFBhrxWm6-28" value="RDS for MariaDB" style="text;html=1;strokeColor=none;fillColor=none;align=center;verticalAlign=middle;whiteSpace=wrap;rounded=0;" parent="1" vertex="1">
          <mxGeometry x="290" y="730" width="210" height="20" as="geometry" />
        </mxCell>
        <mxCell id="ccBI5_2j6PBWFBhrxWm6-29" value="Amazon S3" style="text;html=1;strokeColor=none;fillColor=none;align=center;verticalAlign=middle;whiteSpace=wrap;rounded=0;" parent="1" vertex="1">
          <mxGeometry x="710" y="380" width="100" height="20" as="geometry" />
        </mxCell>
        <mxCell id="ccBI5_2j6PBWFBhrxWm6-30" value="GitHub" style="text;html=1;strokeColor=none;fillColor=none;align=center;verticalAlign=middle;whiteSpace=wrap;rounded=0;" parent="1" vertex="1">
          <mxGeometry x="757.5" y="160" width="40" height="20" as="geometry" />
        </mxCell>
        <mxCell id="ccBI5_2j6PBWFBhrxWm6-31" value="developer" style="text;html=1;strokeColor=none;fillColor=none;align=center;verticalAlign=middle;whiteSpace=wrap;rounded=0;" parent="1" vertex="1">
          <mxGeometry x="987.5" y="230" width="40" height="20" as="geometry" />
        </mxCell>
        <mxCell id="ccBI5_2j6PBWFBhrxWm6-32" value="Amazon Route53" style="text;html=1;strokeColor=none;fillColor=none;align=center;verticalAlign=middle;whiteSpace=wrap;rounded=0;" parent="1" vertex="1">
          <mxGeometry x="690" y="639" width="140" height="20" as="geometry" />
        </mxCell>
        <mxCell id="ccBI5_2j6PBWFBhrxWm6-34" value="" style="endArrow=classic;startArrow=classic;html=1;exitX=0.974;exitY=0.67;exitDx=0;exitDy=0;exitPerimeter=0;" parent="1" source="ccBI5_2j6PBWFBhrxWm6-6" edge="1">
          <mxGeometry width="50" height="50" relative="1" as="geometry">
            <mxPoint x="820" y="628" as="sourcePoint" />
            <mxPoint x="940" y="600" as="targetPoint" />
          </mxGeometry>
        </mxCell>
        <mxCell id="ccBI5_2j6PBWFBhrxWm6-35" value="" style="endArrow=classic;startArrow=classic;html=1;entryX=0.484;entryY=0.875;entryDx=0;entryDy=0;entryPerimeter=0;" parent="1" target="ccBI5_2j6PBWFBhrxWm6-8" edge="1">
          <mxGeometry width="50" height="50" relative="1" as="geometry">
            <mxPoint x="392" y="650" as="sourcePoint" />
            <mxPoint x="401" y="564" as="targetPoint" />
          </mxGeometry>
        </mxCell>
        <mxCell id="T8fbkRHdTeT-P-aV4diV-1" value="" style="aspect=fixed;html=1;points=[];align=center;image;fontSize=12;image=img/lib/mscae/Docker.svg;" parent="1" vertex="1">
          <mxGeometry x="953.87" y="40" width="107.26" height="87.95" as="geometry" />
        </mxCell>
        <mxCell id="VTYt_1vDVZnmxvxrr6WF-1" value="" style="shape=image;verticalLabelPosition=bottom;labelBackgroundColor=#ffffff;verticalAlign=top;aspect=fixed;imageAspect=0;image=data:image/png,iVBORw0KGgoAAAANSUhEUgAAAkcAAAI8CAYAAAD7pg/1AAAACXBIWXMAAC4jAAAuIwF4pT92AAAgAElEQVR42u3dy3Ubx6I20M9neU7+A/RUcATijUBwBOKJQFAEpiIwFIGpCARFYCoCgRGYjMDktDE4QgT6ByjYtKwH8e7H3mtx6VxfkSKqq6u/enTVD58+fQoAAEv/UQQAAMIRAIBwBAAgHAEACEcAAMIRAIBwBAAgHAEACEcAAMIRAIBwBAAgHAEACEcAAMIRAIBwBAAgHAEACEcAAMIRAIBwBAAgHAEACEcAAMIRAIBwBAAgHAEAIBwBAAhHAADCEQCAcAQAIBwBAAhHAADCEQCAcAQAIBwBAAhHAADCEQCAcAQAIBwBAAhHAADCEQCAcAQAIBwBAAhHAADCEQCAcAQAIBwBAAhHAADCEQAAwhEAgHAEACAcAQAIRwAAwhEAgHAEACAcAQAIRwAAwhEAgHAEACAcAQAIRwAAwhEAgHAEACAcAQAIRwAAwhEAgHAEACAcAQAIRwAAwhEAgHAEACAcAQAIRwAACEcAAMIRAIBwBAAgHAEACEcAAMIRAIBwBAAgHAEACEcAAMIRAIBwBABwZD8qAmBXqkF1luS0/J8P/3e+8d8e+pjk5hv/7WM9r2+UNLBPP3z69EkpAOuEn+GDkLP68+kRfp3bB8HpY5KZ8AQIR8C+QtAqAD38etKij3Cb5K4Ep1mSm3pef3RlAeEIeGwYGiUZtTQIPdb9g7A0M8IECEfAwzB0luS8BKJnPS2GxSooCUuAcAT9C0OnD8LQeZITpfIv9yUoXZWwZBoOhCOgY4FoWILQefo7OrSN9yUoXQlKIBwB7Q1EqxGiixznDTJBCRCOgEaEovMk4yTPlcbevSsh6UpRgHAENCsQDbMcIRrHGqJjuE8yTTKt5/Wd4gDhCDheKFpNm1lH1BzvSkiaKQoQjoDDBKLVWqJJurkHUVfcJrms5/VUUYBwBOwvFF2UL1Nn7XGf5DLL0SQLuEE4AoQiikUJSZdCEghHgFCEkATCESAU8d2QNKnn9aWiAOEI+HowGsdC6765T3JhryQQjoB/hqJRllMtdrLur+sSkhx6C8IR9DoUDUsosps1K2+ynG6zHgka4D+KAA4ajC6S3AhGfOaXJHdlihU4MiNHcJhQdJblUROm0Pie6yRjR5LA8Rg5gv0Ho0mSPwQjHulZkptSb4AjMHIE+wtFRovY1m2Sc6NIcFhGjmA/wWgSo0Vs72mWo0gXigIOx8gR7DYUDZNcCUXswXWWo0jeaIM9M3IEuwtG51m+iSYYsQ/PsnyjbaQoQDiCNgSjyyS/x9Ef7NdJkg8Wa8N+mVaD7ULRMKbROA7TbLAnRo5g82A0imk0jmf1yv+ZogDhCJoQjMZJPsQ0Gsf1JMnMztogHMGxg9E0yVslQUOcJHlrHRLsjjVH8PhQdJrl+qJnSoOGepfkwjokEI7gUMFoFuuLaL7bJCMBCTZnWg2+H4zOktwJRrTE0yzXIQ0VBWzGyBF8PxjNYuE17bPIcgTpRlHAeowcgWBEN51kOYLkVX8QjmAnwWic5cGxghECEghHIBjFq/oISCAcAYIRAhIgHIFghIAE/IO31SB/Lb7+Q0nQA95ig+8wcoRg9PdbadAHRpDgO4wcIRh5XZ9+WiQZ2kkb/s3IEX0ORqeCET22GkE6VRQgHIFgBEtPY0oZhCMoruKsNEiSp9WgmioGEI7osfIgeKYk4C8vqkE1UQywZEE2fQtG49jLCL7mZT2vp4oB4Ug4oj/BaJTkg5KAr7IHEghH9CgYDZPcxAJs+J77JGde8afPrDmiL64EI3iUJ0mmigHhCDqsGlSX8WYarOO5Bdr0mWk1uh6MzpP8riRgIz/X83qmGBCOoDvBaBjrjGAbjhihl0yr0WVTwQi2chLrjxCOoBvKegkbPcL2nleD6kIx0Cem1ehiMDpL8oeSgJ1ZZPl6/52ioA+MHNFFU0UAO2V6DeEI2qpMp3ltH3bvmek1+sK0Gl0KRqbTYL9Mr9ELRo7okqkigL0yvYZwBG1RhvtNp8H+PSubq0JnmVajC8FoGJs9NsmiXI+7z76S5O5bUzJlavS0/J/Dz77OXONGXWObQ9JZPyoCOmDioXnUh+SshKFZkpttHpj1vL55RBAeJhmVL4HpOE7KfWeBNp1k5IhWqwbVKMkHJXFQ10muksy+F2YOVAfOkpyXL1Orh/WTxdkIR9C8cHTjgXgQ70sgumryVEo1qE4fBKXnLtv+g3I9r0eKAeEImvMgHCd5qyT25jbJZdMD0Tfqx7CEpIskT1zOvfm5ntczxYBwBM0YIbjx0NuLd0mmXXrglenXixhN2of7el4PFQNd4lV+2spowG4tSij6qZ7X466NBNTzelbP6/MkP5XPye48KaO40BlGjmjjKMBplq+Ge0tpN94kmfTptewy5TZJ8sLl3wmjR3SKkSPa6EIw2onVSNFF3/arqef1XT2vx1mOJF2rClt74tw1usTIEW3r8Rs12t5tkguLaP9Rr0ZZHothqnZzNoakM4wc0TZGjbZ7eL2q5/WZYPRPZU3SMMlrpbGxk9gUko4wckSbevdGjTZ3nWRsw75H1bOzLEeR7J+1PmuP6AQjR7SJUaPNvKrn9Ugwepx6Xt/U8/osRpE24c01OsHIEW3pzRs12qAXn+S8CUd8tLjejbLcGVy9W6PeGT2i7Ywc0RbnHlBreZ/kTDDaTlmbNcxyETuPY/QI4QgOZKIIHu1NPa/PvTW0s4D0sUyz2Tzy8YQjhCPYp2pQnccr1o/1sp7X3hjaT0gaJ3mlJB7lWVnYDsIR6IUezSLLA0CnimKvAekyyUsl8ShCOq1lQTaNVo55+FNJfDcYjawvOmi9HMVC7cf4f6Z3aSMjR+h9CkasqSzUHpXy5+vGigDhCDSuglF/AtKNgKRzg3AEB1UWYpu2EIyaHpDOlcRXPbEwG+EIdmusCL7K5o7NCUizWKT9LUaPEI5gF8qO2M+VxBe9dHBs4wLSNF7z/2qQVwQIR6BB3ac3XtdvbEC6jI0iv+SkTJGDcARbMhT/b+9t8Nj4gDSOo0a+ZKwIEI5gC2Vvo6dK4h/uPWBaYxRvsH3ueZkqB+EINmQI/gtlYjO9dijXSR12XyMcwc573vztlTfTWheQZkneKAn3Ne3k+BAapQy9/09J/OW6ntceKu2tzzcxRbyyqOe1qTVawcgRTWPo/cHDJNYZtZ3r9zdvrSEcwYZGiuAvk3pe3ymG9irToa+VhPsb4Qi2oWe5dFv2zaH9LrN82xD3N8IRrKecweQstSX7GXVEeXvN9Vx6UrbqAOEI9CrX8s7xIJ0LSFdJrpVEElNrCEeg0dzARBF0ktEj9zkt8aMigEZ50+VF2GVKZfiNv3LX1c9fz+ubalC9S/JCOIJms88RTXpwzpI863ERLJIMu7ITdtmz6rw8DM+y3n4/10luksySzDpUJsMkf7rb85M3MWky02o0Sd8by6u2h4BqUJ1Wg2pcNj/8X5K3WY6UrLsR4rMkvyT5Pcn/qkF1VQ2qcdsvcAkE79zqRo8QjuCxpj3//JMWh6JhNaimJeC+ze53hX6e5G01qD5Wg2rS8kNMbdGwHEkE4Qge0aueJXnf04//uo3TDGWk6DLLqaIX2f9WDCdJfk1y19aQVDaG7PubayMtHsIRPN64hw+ON/W8nrQwGJ1nOVL0yxH++VVIuqkGVRsftH0fPXLeHI1mQTZNffCOS1Dq8gLt90ku27anURmtmWY51dWYgJnlcSsfW1SOd0me9Pg2/9l+XghHQBdC61mSq4Y+1G+TnLdlerIaVJMsR7/66pUjcmgq02rAOsFoluaOdjzNcpqtLYt9pz2vUkN3FcIR0OZgNE7yR5p/9t1JklkbAlIZ4brtcbXyxhrCEdDaYDTK8vX8tmhNQEq/R4+EI4QjoJXBaLXGqG1WAanpr/pf9bh6nbR8vyqEI6CHwei0PLxPWvoRTrJcI9VYptaMHiEcAe0yTftfNX9aNqlsslmP69jQbYZwBLRC2eDxeUc+zi8N3yiyz1NrwhHCEdCKYLTa5LFLGvt5er4Romk1hCOgFS7T3nVGX/OkbLrYVH09a82CbIQjoNmqQTXM8gDZLrpo8NtRNz2tckN3HcIR0HSTDn+2kyQXwlGjPHHLIRwBjVVGVV50/GOOhSNAOALaHhx26Ul5E69R6nnd23DU8DcJEY4A4cjnPKJbVRCEI6A5vfdhlqfa90FT92/6qCaCcAQ0x6hnYfC8gb/WrKd1b+j2QzgChKPjs/mgcATCESAcNfzzemMNhCOgQfq230wTR46sOQLhCGiCalD1cYrpxJUHhCPga3p5vlVPQyEgHAHCUWs+952qCMIR0AxGUBqgntfCEQhHAADCEQCAcAQ02kwRHF85wgUQjgCOpmn7CglHIBwBQsLx1PPajtSAcAQICcXClQeEI+Bbbnv2eZsYCIeqIQhHgLBwLDPhCBCOgLaFBZ+3H+4UAcIRICwc16Ke1038vCPhCIQjoCHK0RV9WXd01dDf61RNBOEIaJapcHRUT1VBaIYfPn36pBSAVIPqNMspjpMOf8z7el4PG1j2Z0n+6GO9q+f1D+4+msbIEbB6SH1Mc0dVdmXa0N/rTA0E4QhopkmHP9siyaVw1Cj3bjmEI6DRysLsNx39eJdldKyJRj2tcnfuOoQjoA0m6d7xGvf1vJ40+Pfr62Lsj243hCOg8croyrhjH6uxn6caVOc9rm4O/0U4AloTkK6SvO/Ix3nT0E0fV0Y9rmp37jaEI6BNxmn/xpC39by+aPjv2OeRI+EI4QhojwfTa21df7RIw0dlqkE1TPKkx9XMtBrCEdC6gHRTAkbbAtIiyajBb6et9HnUaNGC64NwBNCJgLQKRm0YlRj3uGoZNUI4AgQkwehvZUqtz+epCUcIR0BnAlJTF2nfJhm2ZMQoSS56XqXu3FU01Y+KgIb2qsfl4dHlnvX7LHdtnrUpIFWDapTlMRwvGvSrvWnBW2mfO+/5bW7kiMb64dOnT0qBJoWi0ywPP33Wo4/9rp7X4xZeq/MsD3I9OeKvcZ9k3KaA+SD8v+3zvV7P6x+0eDSVaTWaZtqzYJQkL6pBNWnhw+0qyTDJ6xx+LdIiyet6Xg/bFoyKcc/v89tAgxk5okm96VGSDz0ugp/Kwa9tvHanWU6DXmS/I0mLLKf0Ltv6Grh6nqSd06D0iJEj9KabY9LWX7ye1x/Lwa7DJC+z+6NH3id5Wc/r03peT1q+P87YrW69Ec1m5Igm9ahn6d+U2udaO3r0het5muXbbaMkZ2te2+vyAJ0lmXVls8Dy+v6f7vbu1HO6ydtq0CyTdGRkoQSaq/L1MDCdfWtEoeO7Jk9U8dwLRjSdkSOa1KuexciRXnV36/co1holLX07k36x5ogmuVIESZYLjumeiSJIspwqBeEINJpreV5GGeiIsieUUVH3OcIRrKcc+7BQEkmMHnUpGJ26nn+5NWWMcATrM7W29LSNG0PyRZMkTxRDEqNGCEeg8dzSRXn1m5aqBtVZkl+UhM4PwhFoPHfjJMvjVGhnMDp1/f5h0dKjXhCO4LjKHjfvlcRfnplea61JkqeKQccH4Qg0orv3a5meoSXK22mm09zXtJRNIGnig2UYRyx87j7JWcd3j+5S/b3Jfg/gbZtFPa9PFQNtYeSIximv+ppa+6cnet6tCEan5ToJRv+k7iIcgcZ0L55Vg8p+Oc12GeuM3M+0nmk1mtwD/5+S+KKX9byeKobG1dlJkl+VxL+YUqN1jBzRSN5a+6a3ZcEvzQlGY8Hoq4waIRzBDk0VwdfLxhtsjQpGb5XEV5kKpnVMq9H0B89dHL3wNYsko3ImHcepn2dJ/lASX3Vbz2shntYxckTTTRXBV50kmRlBOmowmikJ9y/CEWhcBSTBaDmV9ke8sv8tC/cvwhHsgT2P1gpIFmkfLhhZY/R9VzYtRTiC/bGg83EB6ffy4GZ/wWgiGLlv6T4LsmnLQ+kuFmY/1pt6Xl8ohp3XwWmSF0riUa7reT1SDLSVkSPaYqIIHu2XalDNykaabB+KhtWguhGM1mLUiFYzckSbHlIfYwHsOu6TnHvVf6s6N4qz0taud/W8HioG2szIEXqj3fUkyR9lnQzrB6PLJB8Eo7Wpb7SekSPa9LA6TXLnYbWR6yTj8vYf365nZ1m+gu4A2fUZNaITjBzRGuW1YKNHm3mW5MYo0rfDdymfPwSjjalfdIKRI1r3AIvRo23dJrmo5/VMUfxVr85L8PZG5OaMGtEZRo5oFaNHO/E0yYdqUF1Vg6rXD7NqUJ1Vg2qW5HfBaGsTRUBXGDmijQ80o0e79S7JpE/rkUoonMTr+bti1IhOMXJE6xg92rkXSf6sBtW06yNJZc+iaZI/BaOdmigCusTIEW1+0N3FVMg+vE9y2aU1SWVN0UWWC9PZrdt6Xjv4GOEIGvLAG8c5V/t0n+UI3VUbp9zKKNi4fAnR+/Ozxf0IR9CsB+DMaMBBvM9yp+hGn7ReAtF5CURex98/Z6ghHEEDH4ajLHcx5nBuHwSlm4bUgVEJRQLRYf1kY1GEI2hmQJrG4tpjWSS5STIrf97s82FZRobOytcoRg2P6XU9ryeKAeEImhmOvNrfPNdJPpbAtPozSfK19SnlOj5c2Dsqf54lORWEGuU+yVmTp1hBOEJAGlQXSX5TEnAQ/63n9ZViQDiC5gekWYwuwL69r+f1uWKgy2wCSZdcKALYq4X7DOEIWqS8OfVaScDeTLydRh+YVqNzqkF1E690w67Z04jeMHJEF40VAezUwn2FcAQtZnoNdu7CdBp9YlqNzvL2GuyEt9PoHSNHdNk4y+kAYDP3MZ2GcATdUaYBNOywuXO7YCMcQfcC0lWSN0oC1vaqCQcLwzFYc0QveL0f1mKdEb1m5Ii+GMX6I3iM25iORjiC7ivrJkZKAr5pkWRsnRHCEfQnIN0keakk4KvG1hmBcET/AtI0yTslAf/yqrzAAL1nQTa9VA2qqyTPlQQkSd7V83qsGGDJyBF9Nc5y4Sn03bVgBMIRPFygfa806LHbJF7ZB+EI/hGQzuMVf/rpPsnIm2kgHMHnAekm9kCifxZxNAgIRyAgwV/BaOSVffg6b6tBUQ2qsyR/KAkEI+g3I0dQ2CQSwQgQjuDfAWkqICEYQb+ZVoMvKFNssyQnSgPBCPrFyBF8gUXaCEYgHAECEt1yLxiBcAT7DEh20qZNbpOcCUYgHME+A9JZnMVGO1zHztewFQuy4ZGqQXWaZJrkudKgod45RBaEIzhGSLpM8ouSoGFe1fP6UjGAcATHCkjjJG+VBA2wSDKu5/WVogDhCI4dkOyFxLHdlmBk4TXskAXZsKHyQBrGQm2O4328qg97YeQIdsA6JA7M+iIQjqAVAek8y7fZTLOxL/dZTqPNFAUIR9CWgHSa5CrJM6XBjr0vwcj+RSAcQStD0kWS35QEO7BIclHP66miAOEI2h6QzrKcZnuqNNjQdZajRXeKAoQj6FJImiT5VUmwhkWSiUXXIBxBlwPSWZLLWIvE9xktAuEIehWSLpJM4o02/s1O19AQNoGEAyrTJMMk75QGD7xJMhSMoBmMHMGRVINqlOUokqm2/jKFBsIR8IWQNC4h6YnS6A2bOYJwBDwiJE2SXMR6pK6Hook9i0A4Ah4fkE5LQBKSusWr+SAcAUISWY4UTZNcOvYDhCNgtyFpHGuS2haKTJ+BcATsOSiNY+F2010nmQpFIBwBhw1JoyxHk54rjcZ4l+XU2Y2iAOEIOF5IGmY53TaO0aRjuM/ySJip9UQgHAHNC0rnSc6TvFAae7VIclUC0UxxgHAEND8knZaQdB7Tbrv0PsmVtUQgHAGCUl8tksyyHCW6Mm0GwhHQzaA0KkFpFGuUvuS+hKGZA2BBOFIK0L+wdFZC0uqrjxtNrkaHZlmODt2pGYBwBHwellZ/dnFk6TbJTQlDN167B4QjYJ2wdPogKA3L/37aoo9wneSuhKEbb5YBwhGwr9A0LGFpVP7T6s9nB/5VFiX4JMuRoI/l/74zPQYIR0ATw1OSrEafPvfw7zx0U0LO52YP/443xwDhCADggP6jCAAAhCMAAOEIAEA4AgAQjgAAhCMAAOEIAEA4AgAQjgAAhCMAAOEIAEA4AgAQjgAAhCMAAOEIAEA4AgAQjgAAhCMAAOEIAEA4AgAQjgAAhCMAAOEIAEA4AgBAOAIAEI4AAIQjAADhCABAOAIAEI4AAIQjAADhCABAOAIAEI4AAI7gR0UAAHxNNaiGSYZJbup5/bEPn/mHT58+ufIAwCoMnSUZJxklefqFv3Kd5CrJtKthSTgC2tJgj77zV3rTq4U93WPDJNMkzx75LYskl0kuu3bvCUdA0xvscZK3j/zr7+p5PVZqsNF9dpnkZINvv00yruf1jXAEcJhGe91G6ud6Xs+UHOylA/I1iySjrgQkC7LZ5CYa59/Dru+TXNXzeqqUAFrTpp/vIBglyxGnWTWohl2YYvMqP4+9gc6qQXVTbqIvzUc/T/K2GlSzalCdKjGAxrfrp1muMdqVkywXareecMSjglGSWb781sLnniW5E5AAGm/TNUbffAY84uUJ4YhO9Cyu1ryBOtN7AOhw2/5iTz/+Qjii6y6SPNmw9zBWfACNdL7Hn/287bMHwhHfM27ozQfA5kYt//nCEcdRNgR7ssWPeK4UARppuOeffyYc4eb5dsACoFnOFIFwBAD87UQRCEdsZuuNvOp5facYARrnWhEIR2wWbG6y3BJ+U7dKEaCbnd/vaHXHWDjie6ZH+l4A9mfW8p8vHHFUk2w2enQvHAE01j436r1t+5IK4YhvKgcIjtf8tkWS8y4cPgjQ0bb9Lsm7Pf34y7aXj3DEY26iqyT/zeNGkBZJRmW9EgDNNdnDz7yt5/VUOKJPAWlYehqLr4Si10mGghFAK9r1uySvdvgjF9nuVIXG+OHTp09qCGurBtVZktXZOR8FIvZY19ZtpH6u5/VMycGj77FpdnMI7csujBolyY+qBRv2OIQhgG605+NqUH1M8suGP2KRZFxmGDrBtBoACEgXWa4tvV/zW6+TnHUpGAlHAMAqIF3V83qY5GWS99/4q4ss15/+XM/rURdPQjCtBgA8DEnTlH3qqkE1+uz/3Ys1psIRAPC1oDTr4+cWjrZQDaphkrPydVr+XHn24H/f5u9zbD4mucny3Jk7b9U0+poOy9fKXZKLJmxuWQ2qVX1b9eoe9u7O8veJ2/f5+4yjVd1b/Xljo87G1b1huZbak+Ncg9V9/6X7/2vX4O7B142XVbrBq/zrN17npfEaPXgAbeu6NHBXGrejXNPRg+v6vWv6qp7Xl0f8PVdfT3b0o2+zPANplmTWxLDU1Vf599ie3D64nlfu8u+GodX9f7bjNn11DbTpwlFnH54X5eZ5coB/cpHlmTdXTWnYypzzh3W+p57XP2zQSF1+1jv7kvsk03peT7b4PKflel4kebrmt7/e5t/e4Pccl6+nB7rc7x/Uv48NqX+dCUfak8YEovERrsG0ifWyGlSzR7S7jWwjhaPjVJjVQ+nZEX+N1eGtl8d8UB0oHN2t2VD937rD1w8eTOMteoh7v/FLeY+zm03Ztm3QJ8d+E6UL4Uh70phrsEmHaNfX4LIEpaZ0PoSjL/Aq/xduoPKgfnvkhiwlLPya5K4aVNMyktBV6/bgTte4pqfVoLpM8meWm5ydNLTujUpD9eHIwSiljF4k+bPUvaHWoTPtyf/6dE0/uwZPG3ANfitt+qTjbbpw1JEb6PzBDfSkYb/e6kHlhlr/ul5kuVDylwb/jmcPQtGzBv6KQtJmQbep7cnqmt50uT35LBQ1sU1fdXwn7hjhqIk30LA8mH5vaCP2pRvqphpU56rvo67rb2nuSNFqROuPhoairz1QL9Sw79a7D9qTo3c23rblGlSD6u4L+wkhHB11VOGmJQ+mh54k+b0aVFdGkb54Xc+bfl1LQ3iTBo9ofaMx/60aVDdGkbQnDbwGkxZ1Nj6/Bh+qQXWpTReOjt1jv2ryqMIjPc9yWFaP45+N4+9Nvq5ltKgNIwvf8rSMOIzVOe1JQ67BLMuRsDb7JcmsvFGHcHTQm+is9O6ed+QjnZQeR++nOqpBNW1y41ga8DaOFn2r7r0t5d7XOqc9acY1uEv7Rou+1fGY6XgIR4e8ic6z3JjrSQc/3m89f0hNc/w3vB7zEH3aweJ/UabZTntW57Qnx78G4yyn0U46Vv6rjsdlEI4OcBP93sGb6POH1LSHD6lDBqObDX6/sw4/RD/v7Z72pM71pT1p7Dqkcg3edryq/dLnTu8x9eJstQPdRIv889yqz63OShru+SH5IslZNahGfdjobc/BaHVN7/L3uUlXa/5+q2C074fo9TfqXvL3eV37HLlaBaRO172etSfPm3hNexKMHobU1PN6LLIIR224iVY7CM+yPD/nbs3fa5S/z/TZ9QPraZY74Z734NruMhjdf3ZNP275++0rGC3Kz73KBgddlrp3VurHsz3Uvc4GpB63J1f55+HGgpGA1GmdPj6krAn4fcc/9l12fE5ReSV6XL522Qt8t4ub6UDHh6xbEV9l+XbQLh5K0yy387/Z4TXdRzC6Lr/ndIe/5+r8tosd173bJDsJSE05PkR7spv2RDDaypt6Xl/suExncXxIf8LRjh9OiyzPw9n7mUTl5p/ssFHbuqI2NBw19pqWwDHbYQ/+XQ5wxlm5zpMdNpTv63l9voPf6+jhaE/tyfQA17Rx7cmW1+APYxp5ueMOknD0BZ1ckF0eTlc7asjeJRnW83pyiGmCel5P63k9TPKyNKLb+tVu2v++efd8Ta92FIyuk/xUz+vxIQ5/ref1rJ7XoyQ/ZznFuK3nXTgaYQ/tyVmpe3fak7U7HCzfYrMPknC0kekOekr3pQc6PsbaidIzGCZ5v4vysJvxP8LG3oJuCQPb9sIWSf5bz+vRIR6gXwlJwxIid/EwHWlP/tGe3GlPNupwdPnNwLXLw9BPmk8AAA//SURBVE7awtG6D6eLbL8h26p3d9SeSj2vP5ZpiW17fSelge+z1/sOG6U3t+0mlLel7l0du8DK0Pj/ZftRpNZuL1GmpbrWnvy3Te3JjjocXfNEmy4crXMTDbOcX9/Gy2ONFn2n1zfa8iH1rKe7aC9Kj31ygH9r28bqXT2vz44xsvCNuneT5Zttt1s25K3bzK60J9v+3q8a2J5ctaU92VGHo6ueWzIhHD3WZTYfel1kxwvdGviQmvRsem2R5RtTe++xl97tNuuMXjX1Nd0y4nCW5QjIpl60cHptm/Zk1dG6bOg1bUt7ctmANuQ6y+nI1w++3pX/vjjy7zc1vbYfndnnqDS8z7e4AUa7fJV7Xw+p8jlnGz6IT7IcWRv3oG4f7JqWB8Q2vejGhvLP6t+4GlTJ5ntLXZYHctfbk2RP2wn0qT0pU5rHmE57X8rk6jGjuOX+H2W5x9Shz9g7KW3PRJzZrS6NHG3zcLloejB62KCVG3HTHt+LDiyQbVrYnWwxwvC6DcHoYUDK5ot6n7boMM1tRixeNj0YtaQ9mRy4zXid5Qsb5/W8vnzs9HY9r+/KW4HnSf5flnuw3R/wd//VCzfC0bd6GJu+TfKqTQ+nBw3aOJsP6XZ97dH5oYJRaZQ2HUl519L9QMZbPEwb/3lLe7LpFGlb25PzLdqTyR6uwSSHO4vwTf7e2uNu27IsU6lnJWwdatqtje2IcNTgivGuqWsCHnET3mTz40FGHa7Trw7ca9+07t22NaRu+TBtw+G7m17T9y1uT+62aE+e7WH0aHyAj32f5P/qeX2x6wXzJSRNSki6PsBneWH0SDj6vIcx2rDBvU/LR1BKCHizwbdedbQ+Xx/y4bTFqNEiybjNZ4+Vh+kmD7DbJn+uLduTcZtvni3ak52GmS1nAh4dZLPcXuFm3/dJ2Vj1zQEuYR/fRt6bLizI3rRCjLtwMGY9ry+qQbXOoZAf0839MRZHeDht+u9N2rLG7Tt176oaVD+tWQ5NH1nRnixfD183nLyoBtWudv3e90P+4GfElXK9yX7PhRuXa9C5A5+Fo8167s83vDlmXbmI5bPMel6XL4+wP9AmDex9W6devtYzTkfWO2zRnrzvUntS6vWHDb7vfNvwW/Y1errHz3a0w3PreT0tb3vuKyCdlGvQxc7vwbV9Wm3TOfKJS98p94de2Lxh73rTQEWz25NOTWeUoHd9pHLY5/3x7th7iZXF+q8bWIfpWDgab3iD3Ln0nXKMsLtJI3TdsRGGrtGebHdPPdnBgaj7erg35gWI0pHb1yLt5zaF7Hk4KkPgTw9009Nc90d6dXq0wfdculzakzbYYvTofItrcJb9LcRu2pqwbbZOOFbAFI5aYpOH03ujRp1z8GC0YSN+34TDZNGe7DnMj7b49/b1UH/TtBcgSlC7aFBdpufhaOqSC0dHqnuCkfakVUqYX3d049mBr8H3LNLQ0b0y4r2PnbSHbmfhaK2bRM+9c26P1HP3IBWO+tKerP0Zt9gQch/nqF02/NX2i+x+eu3O7by9Vr7KXxacrTutMXO5O+dYgWPdRaf3XdjXqKs2bE8+liMuum6Txb2jddvbHSzkbmWnpOwVNsxyCnO4gx85i7WN/Q1H2exkb6NG3XOswCuYd8vZhnXgV0X3RcMDfc/3tGJN2IOzMmmQtk6rbdKY6bl3zDFGYzacMhCOuteesNugs49roENM78LR2kO9pjU657otdU8w7157ws6DznAPv4dOCb0LR+vefLcudefctaXhF8w7+TDn604aEI4Wtm2hj+Fo3Z6eg/iEo2NZuFSda0/4jgbs0qxDQi/DUVcfpHSPRpo+Otvz39fmIxy5URA6oNNOdvzztPkIR/TSsaZKrU8BEI6AB4xYAQhHnWDBJUB/aPMRjh7BVAjHMlQE9Mwi64+w7nrfMm0+W/lREcBePVEEjbfu+rVNHv59ctGAw151SuhlOJplvROcn7nU7Mjdut9QDaozG0E22k2S52v8/ZN6Xo8U21ED6nc7JdWgOm1ASKOlerMgu5x8DAcPR3qx2hMeFVB3TYCld+FotsH3mIPmWI24Rrp77YlrevxOx/ecK1Y29WOPbqTzOKWZLdXz+mM1qBZZb9M6D9LutSejJFNF1+xw1JaptWpQjbObEeabel57zvU1HNXz+s4DiiO6yXrr2J5Wg2roIEztCV+9BrNqUO36x56UTnFjQ2w1qM7K7/d0hz/zdT2vJ2rVdtq85mi25t9/UioiHLruJYb4u9ieCEi7dbuHn9n0kHC5y2AkuAtHmz6gLlxyjlT3xorNNWXn1+AxIbaR7X4J1/t4k9obesLR+r33alDZOZWt1PN6luVeN+t4auRSe8LBw1GSTBp6naYtK0fhqCUPqJsk92t+20mMHnG8Bkjd057w9WtwtUGn47HXqVGLlKtBdZn9bRBrQXafw9EWleBCb48j1b0X9sfRnnCUB/uzalBNGhKMxkl+2dOPv/Xih3CUbDYsqbfHLnq50w17uVOlpz3h4OEoSX4tweSYwegsy0XYTarDfEGrz1ar5/VNNahus/5q/1+rQTXtSsIuPdfHrmf56CiLnTbkLzbowZ53aS+Sdd7aKuu1tCfak69dg6tqUN1nf1NOb6tBtercHCMYzbLelhHCkXC0scskbzesRKO2f/jSE7pc54azD8ZO696LTb6vGlSztp/7VBr7q3UeZNWgum74uWTak+O3J9Mkv+7xY74tm0NeHrBcV/st7TMYvXOW3O60/my1LaY3GjMHveXD6XKDG840wI5GGpJcb/CtT9rewyujC2sFo9V9pz3RnjwioC72/HF/qwbV1SHWi5XF17/vORglRo2Eo6/cTJv4ta0buZWbetOeiGm13dn0gfi8qfuvrNEQbzL1sWjBZ9OeHLE9KaMfhxjVeZ7kbl/rkKpBNaoG1U32t/j6oesmT1kLR8dtzDZtdK9auv/MNJvvrHqp6u+sIZ9ls9GjVe+1dTtnl57w8w7XPe3J8a/pIUaPUsLg22pQzXZ1L5ZQNEvyIbvf/XrXnTS6HI5KT+Nii5tj1qZXrKtBNd3i4XTtYMJGNUzTNj1Mt3wNedGGcLSj9qRN17Rx7ckBR49WniX5vRpUd9Wgulz3+lWDalgNqosyUvQhh50+fm/UaPd+7MoHqef1tExTbJLUT5LcVINq1PQ3uUpD9mKLH2G90e7r3qwaVO82vC6rh2kb6t44my1W/qvutWXB6A7ak5n2ZGuXWR7R8uSARfKkhP9fymHEN/l7w9eHAeQsyeqtvrMD/46fdzi06Xvwn459nm0qSaN7fNWgOq0G1Savjj/0xmv8e617iy3q3h/H3oPlEQ/RbYLR9TFen97SNtdDe7J9QN1mBG8XTrIcAfq1fH148PVb+W/PjxiMkuTSpo/C0aN68EnebHkzNO4h9WB/jOdb/Jj7mJfeZ937mO0PIn1b1vM07SE62/IhukgLD2ktD37tyRHbkzJl914L80W3tmQRjta5mS6S3O7gIXXVhGMBytD+LNsv7BvbA6MVDfkv1aC6acIauPLm1V22Xz8xaWvvVnvSiPZknPXPveu6VnY4hKPjG2f7Nx32+prnY3p3pcf+W7bfH+O1BXsHrXvbPkyfJvmzGlRHOU28jBZNs5w+2LbuvT/kZnvak+61JyWEnYeHLiyREI42uZludpSqV6953hxq/5Ly1sM0yR/ZzRsP7w29HrTufdzRwzRZrmm4OdQDtYSiSZajRS928CNvu9C73UN7cneoLRy60p6Ua/BSC5NkuRP2VDEIR5veTFdJXu3oxz1N8qE0auN99ObL3hjTJH/u6MHUmYdTjx+myXKx5+qBOtnHdFsZVZiWUPRrdrOT7yLJeVemcnfcnjzJ36+Na08efw2mSd71vHm5rue1Nv0Afvj06VOnP+AOXlX9ag8qy+MTZpuupyi9x1GWQ8a7fuPhNsloFw+nMmr2Yc2G7Ic1/411K+LPTZ8q3MGr79+6ttNS9262uKarurfrjeoWpe7d7KgcG1M3tCfHD7t7vAZNt5drUKZbd7kvUyfO7vyx67WpntfjalBlDzfT8/KVcor0XZYLHT/my9vpDx98nWW/O6c2piHrs7JXTvYQkJ5muXYk39mLZWW1H8vqz31uULfTYKQ9aUR7smhSe7LHa9C7YESPw9GBbqYn5euZm4gDBaSV1V4sq7r36xE/bqeDkfakV9dAMOq5//Tlg5Z52jduIo4RkNL9xaS9CEaftSevtSdHvwZdX4N0rU0Xjg5xM110+CH1zk3U+ID0f2nHqfSbPESHfXu1uKyr0J4cPyC96uo1qOe1Nl04OvhDqkubir2q57VNHptf926yXCNy26GP1etQrj1pxDW4TPJzhzoeiyQvvZUmHB3rIXWW9m9Lf5/k/zqwyV6f6t7Hel6fpf1TMosk/xXKtScNuQaz0vG4bvk1WE1lTrWWwtExH1LnSf7b0l7fmyRndkltbf2blBGHNo4ivc9yGu3KldSeNOwajLKc6mzjKNLrel5r04WjxtxQV6XX15ae/HXp3V2YRmv/iEMZRXrVksb8Pss9hM7VPe1Jg6/BNMtRpHctugY/OclAOGpqj2OS5KcG31DX5cE00rPoXP27LI3564aGpPss10AMndGnPWnRNRi36BrcuXOEoybfUHcPbqg3DXlQPbyBjvVgOkSPctHzurd6oK5CUhOmZm4fhKKpFkJ70vJr8K4h1+B9n65BW3X++JBtlDOPzrM8T+iQG7LdZ3mUwGVTehRrbtm/9vbxax61cV3WFnS9/q3q3vMD/rOLB3XvpiHlsE7deNfUt3wetCfnB76mjWtPGnANLrLfXcW/dA0uk1w17RqUdmaa3Zyp2Jm99oSjzRq20Y4q0uc9ulm5eUyb8XndGz2oe/s4N2uW5bleFll3oz25LYFIe/L1azB8UP77atNX5+W5BsJRb26ssywXXg7LjXX6yJ7I6tykuyzPTLoxtMoGjfrZg6/TPG5kc3UO26r+zUr9s7hae+Ia/H0NHt5X61yD1b3lGghHfKdneJbko14DR6p70UhrT9hpp2ToGghHAAC94201AADhCABAOAIAEI4AAIQjAADhCABAOAIAEI4AAIQjAADhCABAOAIAEI4AAIQjAADhCABAOAIAEI4AAIQjAADhCABAOAIAEI4AAIQjAADhCABAOAIAEI4AABCOAACEIwAA4QgAQDgCABCOAACEIwAA4QgAQDgCABCOAACEIwAA4QgAQDgCABCOAACEIwAA4QgAQDgCABCOAACEIwAA4QgAQDgCABCOAACEIwAA4QgAAOEIAEA4AgAQjgAAhCMAAOEIAEA4AgAQjgAAhCMAAOEIAEA4AgAQjgAAhCMAAOEIAEA4AgAQjgAAhCMAAOEIAEA4AgAQjgAAhCMAAOEIAEA4AgAQjgAAhCMAAIQjAADhCABAOAIAEI4AAIQjAADhCABAOAIAEI4AAIQjAADhCADgKP4/PnJhU4gpKvYAAAAASUVORK5CYII=;" vertex="1" parent="1">
          <mxGeometry x="550" y="77.32" width="123" height="120.68" as="geometry" />
        </mxCell>
        <mxCell id="VTYt_1vDVZnmxvxrr6WF-2" value="" style="endArrow=classic;html=1;entryX=1.024;entryY=0.37;entryDx=0;entryDy=0;entryPerimeter=0;" edge="1" parent="1" target="VTYt_1vDVZnmxvxrr6WF-1">
          <mxGeometry width="50" height="50" relative="1" as="geometry">
            <mxPoint x="720" y="122" as="sourcePoint" />
            <mxPoint x="610" y="122" as="targetPoint" />
          </mxGeometry>
        </mxCell>
        <mxCell id="VTYt_1vDVZnmxvxrr6WF-4" value="" style="endArrow=classic;html=1;entryX=1.024;entryY=0.37;entryDx=0;entryDy=0;entryPerimeter=0;" edge="1" parent="1">
          <mxGeometry width="50" height="50" relative="1" as="geometry">
            <mxPoint x="544.05" y="117.03" as="sourcePoint" />
            <mxPoint x="500.002" y="117.00159999999997" as="targetPoint" />
          </mxGeometry>
        </mxCell>
      </root>
    </mxGraphModel>
  </diagram>
</mxfile>
